<?xml version="1.0" encoding="UTF-8" standalone="no"?>
<!-- Created with Inkscape (http://www.inkscape.org/) -->

<svg
   width="230"
   height="260"
   viewBox="0 0 230 260"
   version="1.1"
   id="svg5"
   inkscape:version="1.2.2 (b0a8486, 2022-12-01)"
   sodipodi:docname="parent_child_tree.svg"
   xmlns:inkscape="http://www.inkscape.org/namespaces/inkscape"
   xmlns:sodipodi="http://sodipodi.sourceforge.net/DTD/sodipodi-0.dtd"
   xmlns="http://www.w3.org/2000/svg"
   xmlns:svg="http://www.w3.org/2000/svg">
  <sodipodi:namedview
     id="namedview7"
     pagecolor="#ffffff"
     bordercolor="#000000"
     borderopacity="0.25"
     inkscape:showpageshadow="2"
     inkscape:pageopacity="0.0"
     inkscape:pagecheckerboard="false"
     inkscape:deskcolor="#d1d1d1"
     inkscape:document-units="mm"
     showgrid="false"
     inkscape:zoom="1.3932941"
     inkscape:cx="68.901462"
     inkscape:cy="101.55788"
     inkscape:window-width="1920"
     inkscape:window-height="1016"
     inkscape:window-x="0"
     inkscape:window-y="0"
     inkscape:window-maximized="1"
     inkscape:current-layer="g604"
     showguides="false" />
  <defs
     id="defs2" />
  <g
     inkscape:label="Layer 1"
     inkscape:groupmode="layer"
     id="layer1">
    <g
       id="g604"
       transform="translate(-35.708473,-1.8106099)">
      <g
         aria-label="Parent "
         id="text236"
         style="font-size:37.3333px;font-family:'Winter Sunday';-inkscape-font-specification:'Winter Sunday';text-align:center;text-anchor:middle;fill:#2d2d2d;stroke-width:1.00157" />
      <g
         id="g953"
         transform="translate(-34)">
        <path
           d="m 72.406083,88.785487 c -0.07467,0.784 0.224,1.343999 1.119999,0.821333 0.522666,-0.298666 4.40533,-6.607994 5.077329,-7.653327 0.485333,-0.783999 1.007999,-1.679998 1.493332,-2.351998 3.210664,-5.226662 6.757328,-10.341324 10.191992,-15.455987 0.597332,-0.933332 1.269332,-1.343998 2.351998,-1.418665 2.762664,-0.261333 6.159994,-0.224 8.810657,0.634666 1.19467,0.410666 2.352,1.045332 3.32267,1.829332 1.49333,1.231999 1.71733,2.874664 0.56,4.479996 -3.39734,4.554663 -10.453329,7.130661 -15.791991,8.399993 -2.874665,0.709333 -5.898662,1.119999 -8.735993,1.978665 -1.269332,0.410666 -1.530665,1.866665 0.186667,1.455999 3.434663,-0.672 6.943994,-1.530666 10.303991,-2.426665 4.517329,-1.194666 8.847996,-2.986664 12.581326,-5.861328 2.87466,-2.239998 5.33866,-5.637329 2.12799,-8.81066 -1.86666,-1.866665 -4.74132,-2.874664 -7.354656,-3.06133 -1.978665,-0.112 -3.919996,-0.112 -5.898661,-0.186667 0.933332,-1.007999 0.298666,-2.874664 -0.784,-1.791998 -0.821332,0.821332 -0.858666,1.978665 -2.389331,2.426664 -0.895999,0.261333 -7.093327,1.717332 -5.711995,3.434664 0.447999,0.522666 0.895999,0.186667 1.269332,-0.149333 1.194666,-1.007999 2.202665,-1.418666 3.770663,-1.567999 -0.111999,0.186667 -0.186666,0.336 -0.298666,0.522666 -3.322664,5.226663 -6.794661,10.341325 -10.191991,15.530654 -1.418666,2.127998 -5.151996,7.24266 -6.010662,9.221325 z"
           id="path778"
           style="font-size:37.3333px;font-family:'Winter Sunday';-inkscape-font-specification:'Winter Sunday';text-align:center;text-anchor:middle;fill:#2d2d2d;stroke-width:1.00157" />
        <path
           d="m 110.89669,81.094827 c -0.70933,5.226662 2.09066,5.039996 6.01066,2.874664 2.20267,-1.231998 4.48,-2.762664 4.06933,-3.62133 -0.224,-0.485333 -0.672,-0.522666 -0.97067,-0.298666 -1.23199,0.970666 -2.46399,1.941331 -3.65866,2.687998 -1.75466,1.119999 -4.81599,2.575997 -3.73333,-1.455999 0.224,-0.933333 0.48533,-1.829332 0.336,-2.277332 -0.41067,-1.455998 -2.05333,-2.239998 -3.32266,-2.015998 -1.53067,0.261333 -2.912,1.306666 -3.99467,2.575998 -2.38933,2.837331 -3.17333,6.831994 -0.26133,5.674662 1.71733,-0.672 3.99466,-2.874664 5.52533,-4.143997 z m -5.6,1.717332 c 0.85867,-1.941332 2.53867,-3.695997 4.592,-4.405329 1.26933,-0.336 1.26933,0.559999 -0.448,1.941331 -0.93333,0.746666 -1.86666,1.493332 -2.76266,2.277332 -1.456,1.119999 -1.904,1.231999 -1.38134,0.186666 z"
           id="path775"
           style="font-size:37.3333px;font-family:'Winter Sunday';-inkscape-font-specification:'Winter Sunday';text-align:center;text-anchor:middle;fill:#2d2d2d;stroke-width:1.00157" />
        <path
           d="m 123.9633,76.950831 c -0.29867,-0.03733 0.0747,-0.895999 -0.672,-0.821333 -1.15733,0.112 -1.344,0.821333 -1.456,0.970666 -1.456,2.426665 -3.248,4.703996 -4.47999,7.24266 -0.224,0.448 -0.336,0.896 0.18666,1.157333 0.52267,0.336 0.85867,0.03733 1.12,-0.448 1.49333,-2.239998 2.8,-4.18133 4.74133,-6.122661 0.56,-0.522666 1.12,-0.746666 1.82933,-0.298667 0.784,0.485333 5.152,1.343999 5.07733,-0.149333 0,-0.783999 -0.74666,-0.671999 -1.30666,-0.634666 -1.19467,0.07467 -2.31467,0 -3.36,-0.597333 -0.59733,-0.261333 -1.12,-0.186666 -1.68,-0.298666 z"
           id="path772"
           style="font-size:37.3333px;font-family:'Winter Sunday';-inkscape-font-specification:'Winter Sunday';text-align:center;text-anchor:middle;fill:#2d2d2d;stroke-width:1.00157" />
        <path
           d="m 132.43793,81.46816 c 0.18667,0.03733 0.336,0.07467 0.52266,0.112 2.53867,0.746666 6.86933,-1.045332 6.048,-3.39733 -1.15733,-3.322664 -8.77333,0.746666 -8.36266,4.778662 0.48533,4.74133 13.85066,0.336 16.53865,-1.791998 0.56,-0.485333 0.37334,-0.970666 0.14934,-1.157332 -0.224,-0.186667 -0.48534,-0.112 -0.97067,0.111999 -2.688,1.231999 -15.67999,6.383995 -13.92532,1.343999 z m 5.41333,-2.799997 c -1.19467,1.194665 -2.50133,1.978665 -4.256,1.754665 0.896,-1.455999 2.576,-2.202665 4.256,-1.754665 z"
           id="path769"
           style="font-size:37.3333px;font-family:'Winter Sunday';-inkscape-font-specification:'Winter Sunday';text-align:center;text-anchor:middle;fill:#2d2d2d;stroke-width:1.00157" />
        <path
           d="m 162.78988,79.937495 c -1.792,0.224 -14.26132,8.735992 -11.05066,3.359997 0.97067,-1.605332 2.20267,-2.911997 3.92,-4.06933 0.63466,-0.447999 0.85866,-1.530665 0.0747,-2.053331 -0.74667,-0.410667 -2.50134,0.07467 -5.89867,1.717331 -0.112,-0.335999 -0.18666,-1.082665 -0.48533,-1.269332 -0.52267,-0.335999 -0.93333,0.224 -1.232,0.597333 -0.59733,0.783999 -5.63733,7.055994 -5.71199,7.35466 -0.26134,0.970666 0.59733,1.381333 1.12,0.821333 2.12799,-2.277331 4.44266,-5.301329 8.21332,-7.018661 0.896,-0.410666 1.53067,-0.597332 1.94133,-0.709332 -2.01599,1.941331 -3.80799,4.965329 -4.03199,6.010661 -0.336,1.530666 0.37333,2.389332 2.57599,1.754665 3.696,-1.082665 9.408,-4.367996 10.60266,-5.151995 0.224,-0.149333 0.448,-0.298667 0.56,-0.522666 0.224,-0.485333 0.0747,-0.933333 -0.59733,-0.821333 z"
           id="path766"
           style="font-size:37.3333px;font-family:'Winter Sunday';-inkscape-font-specification:'Winter Sunday';text-align:center;text-anchor:middle;fill:#2d2d2d;stroke-width:1.00157" />
        <path
           d="m 168.20319,71.462835 c -3.09867,4.778663 -7.28,11.013324 -10.71466,15.567987 -0.336,0.448 -1.64266,1.866665 -0.85867,2.426665 0.82134,0.597333 1.64267,-0.709333 2.016,-1.269332 3.248,-4.927996 7.46666,-11.237324 10.90133,-16.015987 0.37333,-0.522666 0.672,-0.821332 1.344,-0.858666 2.76266,-0.149333 6.86932,-0.112 9.48265,-0.597333 0.29867,-0.03733 0.82134,-0.298666 0.896,-0.634666 0.112,-0.597333 -0.48533,-0.746666 -0.93333,-0.783999 -1.568,-0.112 -7.87733,0.895999 -8.77332,0.373333 2.27733,-2.837331 3.13599,-3.882663 6.27199,-5.861328 0.48533,-0.298667 0.74667,-0.784 0.41067,-1.306666 -0.37334,-0.559999 -0.85867,-0.373333 -1.344,-0.07467 -2.16533,1.455999 -4.592,4.106664 -6.384,6.197329 -0.784,0.933332 -1.568,1.343998 -2.79999,1.381332 -1.232,0.03733 -8.25066,0.261333 -8.81066,0.783999 -0.56,0.485333 -0.56,0.895999 0.14933,1.045332 2.24,0.448 6.83199,-0.559999 9.14666,-0.373333 z"
           id="path763"
           style="font-size:37.3333px;font-family:'Winter Sunday';-inkscape-font-specification:'Winter Sunday';text-align:center;text-anchor:middle;fill:#2d2d2d;stroke-width:1.00157" />
        <g
           aria-label="Child 1"
           id="text398"
           style="font-size:37.3333px;font-family:'Winter Sunday';-inkscape-font-specification:'Winter Sunday';text-align:center;text-anchor:middle;fill:#2d2d2d;stroke-width:1.00157">
          <path
             d="m 181.14173,117.80102 c 0.448,-0.56 0.336,-1.568 -0.59734,-1.15734 -0.48533,0.224 -1.26933,0.97067 -1.67999,1.30667 -2.53867,2.50133 -6.608,5.89866 -9.89333,6.42133 -1.71733,0.29866 -2.38933,-0.56 -2.61333,-2.27733 -0.18667,-1.456 0.14933,-2.98667 0.59733,-4.44267 2.016,-6.27199 5.30133,-11.27465 9.96799,-15.71732 2.576,-2.426661 5.86133,-4.666659 9.25866,-4.479992 1.97867,0.112 2.53867,1.605332 1.792,3.583992 -0.93333,2.42667 -5.33866,8.02666 -7.95199,9.25866 -0.784,0.37334 -1.38133,0.59734 -1.26933,1.008 0.0747,0.336 0.59733,0.59734 0.896,0.56 3.32266,-0.224 14.07465,-12.170654 8.39999,-15.418651 -1.08267,-0.634667 -2.20267,-0.746667 -3.50933,-0.522667 -8.69866,1.829332 -19.56265,16.277318 -19.59999,25.722648 -0.0373,6.04799 5.00267,4.51733 8.54933,2.46399 1.904,-1.11999 6.30933,-4.55466 7.65333,-6.30932 z"
             id="path796" />
          <path
             d="m 186.40571,117.80102 c 2.16534,-3.62133 4.368,-7.20533 6.72,-10.63999 1.49333,-2.16534 3.248,-4.21867 5.15199,-6.048 0.37334,-0.37333 0.74667,-0.82133 0.29867,-1.306664 -0.448,-0.485333 -0.896,-0.149334 -1.30667,0.186666 -1.94133,1.679998 -3.84533,4.255998 -5.30132,6.383998 -3.472,5.07733 -6.68266,10.41599 -10.15466,15.49332 -0.26134,0.41066 -0.52267,0.93333 -0.0373,1.30666 0.18667,0.14934 0.48534,0.14934 0.672,0.0747 0.26134,-0.112 0.70934,-0.59733 0.93334,-0.82133 1.30666,-1.12 2.61333,-2.464 4.06933,-3.472 1.75466,-1.19467 1.94133,-1.456 2.79999,0.37333 1.04534,2.38933 2.576,2.76267 5.22667,1.12 1.60533,-1.008 3.54666,-2.16533 4.21866,-2.688 0.56,-0.448 0.56,-1.30666 -0.14933,-1.19466 -0.48534,0.0747 -2.53867,1.49333 -4.06933,2.42666 -2.05334,1.232 -3.024,1.82933 -4.144,-0.82133 -0.52267,-1.232 -0.97067,-2.42666 -3.06133,-1.49333 -0.672,0.336 -1.232,0.74666 -1.86667,1.12 z"
             id="path793" />
          <path
             d="m 209.81364,116.56902 c -2.016,0.59733 -14.52265,9.14666 -11.05066,3.36 0.97067,-1.60534 2.20267,-2.912 3.92,-4.06933 0.448,-0.29867 0.85867,-0.896 0.48533,-1.41867 -1.34399,-1.86667 -6.75732,5.97333 -7.09332,7.57866 -0.336,1.53067 1.008,1.904 3.21066,1.26933 3.696,-1.08266 9.29599,-4.55466 10.49066,-5.33866 0.224,-0.14933 0.448,-0.29867 0.56,-0.52267 0.224,-0.48533 0.14933,-0.97066 -0.52267,-0.85866 z m -5.59999,-4.368 c 0.52266,0.0373 1.904,-0.41066 1.75466,-1.30666 -0.0373,-0.224 -0.29866,-0.41067 -0.48533,-0.48534 -1.30667,-0.48533 -2.912,1.68 -1.26933,1.792 z"
             id="path790" />
          <path
             d="m 218.99759,116.79302 c -4.92799,4.18133 -13.36532,9.37066 -8.25066,0.37333 2.98667,-5.22666 5.86133,-8.92266 8.73599,-13.21599 0.56,-0.82133 3.472,-3.09866 2.65067,-4.143994 -0.70933,-0.970666 -2.016,0.933334 -2.38933,1.418664 -1.456,1.86667 -7.056,9.63199 -10.26666,15.30665 -6.90666,12.20799 6.27199,5.488 10.56532,1.30667 0.37334,-0.37333 0.448,-0.59733 0.18667,-1.04533 -0.29867,-0.48534 -0.784,-0.26134 -1.232,0 z"
             id="path787" />
          <path
             d="m 225.15753,118.65968 c -1.15733,1.94133 -7.01866,11.34933 -7.20532,12.69333 -0.112,0.74666 0.672,0.89599 1.04533,0.52266 0.52267,-0.48533 0.41067,-0.784 0.85867,-1.568 5.15199,-9.18399 10.82665,-18.36798 17.77065,-26.46931 1.38133,-1.64266 0.0373,-2.352 -1.38133,-0.52266 l -7.80266,10.41599 c -0.336,0.37333 -0.63467,0.784 -0.93334,1.232 -0.41066,-1.82934 -0.82133,-3.39733 -3.24799,-2.53867 -6.496,2.27733 -9.81866,14.48532 -2.688,8.77333 1.12,-0.896 2.27733,-1.792 3.58399,-2.53867 z m -4.47999,1.41867 c -1.60533,1.232 -1.86667,0.85866 -1.12,-1.04533 0.48533,-1.19467 4.256,-6.832 6.08533,-5.152 0.48533,0.448 0.448,1.75467 -0.0747,2.24 -1.53066,1.38133 -3.21066,2.688 -4.89066,3.95733 z"
             id="path784" />
          <path
             d="m 252.18683,106.93703 c 0.85867,-0.85867 1.26934,-1.08267 0.52267,0.29866 -1.71733,3.21067 -7.39199,12.17066 -8.54933,14.11199 -0.784,1.30667 -5.52532,1.64267 -4.55466,3.17333 0.336,0.448 0.784,0.224 1.19467,0.0747 1.04533,-0.37334 2.05333,-0.82133 3.17333,-1.04533 1.08266,-0.224 7.09333,-0.97067 7.50399,-1.30667 0.85867,-0.63467 0.0747,-1.568 -0.48533,-1.30667 -0.896,0.448 -4.21866,0.74667 -5.264,0.70934 0.29867,-0.52267 0.52267,-1.008 0.82134,-1.53067 l 11.12532,-17.99465 c 0.26133,-0.41067 1.08267,-1.49333 0.48533,-1.97866 -0.224,-0.149338 -0.63466,-0.186671 -0.85866,-0.0747 -0.85867,0.48533 -8.512,8.13866 -9.856,9.44532 -0.33599,0.37334 -0.70933,0.672 -0.29866,1.15734 0.784,0.85866 2.05333,-0.784 2.576,-1.26934 0.85866,-0.82133 1.64266,-1.64266 2.46399,-2.46399 z"
             id="path781" />
        </g>
        <g
           aria-label="Child 2"
           id="text402"
           style="font-size:37.3333px;font-family:'Winter Sunday';-inkscape-font-specification:'Winter Sunday';text-align:center;text-anchor:middle;fill:#2d2d2d;stroke-width:1.00157">
          <path
             d="m 181.60776,154.05562 c 0.448,-0.56 0.336,-1.568 -0.59734,-1.15733 -0.48533,0.22399 -1.26933,0.97066 -1.67999,1.30666 -2.53867,2.50133 -6.608,5.89866 -9.89333,6.42133 -1.71733,0.29867 -2.38933,-0.56 -2.61333,-2.27733 -0.18667,-1.456 0.14933,-2.98667 0.59733,-4.44267 2.016,-6.27199 5.30133,-11.27465 9.96799,-15.71732 2.576,-2.42666 5.86133,-4.66666 9.25866,-4.47999 1.97867,0.112 2.53867,1.60533 1.792,3.584 -0.93333,2.42666 -5.33866,8.02665 -7.95199,9.25865 -0.784,0.37334 -1.38133,0.59734 -1.26933,1.008 0.0747,0.336 0.59733,0.59734 0.896,0.56 3.32266,-0.224 14.07465,-12.17065 8.39999,-15.41865 -1.08267,-0.63467 -2.20267,-0.74667 -3.50933,-0.52267 -8.69866,1.82933 -19.56265,16.27732 -19.59999,25.72265 -0.0373,6.04799 5.00267,4.51733 8.54933,2.464 1.904,-1.12 6.30933,-4.55467 7.65333,-6.30933 z"
             id="path814" />
          <path
             d="m 186.87174,154.05562 c 2.16534,-3.62133 4.368,-7.20533 6.72,-10.63999 1.49333,-2.16533 3.248,-4.21867 5.15199,-6.048 0.37334,-0.37333 0.74667,-0.82133 0.29867,-1.30666 -0.448,-0.48534 -0.896,-0.14934 -1.30666,0.18666 -1.94134,1.68 -3.84533,4.256 -5.30133,6.384 -3.472,5.07733 -6.68266,10.41599 -10.15466,15.49332 -0.26133,0.41066 -0.52267,0.93333 -0.0373,1.30666 0.18666,0.14934 0.48533,0.14934 0.67199,0.0747 0.26134,-0.112 0.70934,-0.59733 0.93334,-0.82133 1.30666,-1.12 2.61333,-2.464 4.06933,-3.472 1.75466,-1.19467 1.94133,-1.456 2.79999,0.37333 1.04534,2.38933 2.576,2.76267 5.22667,1.12 1.60533,-1.008 3.54666,-2.16533 4.21866,-2.688 0.56,-0.448 0.56,-1.30666 -0.14933,-1.19466 -0.48534,0.0747 -2.53867,1.49333 -4.06933,2.42666 -2.05333,1.232 -3.024,1.82933 -4.144,-0.82133 -0.52267,-1.232 -0.97067,-2.42666 -3.06133,-1.49333 -0.672,0.336 -1.232,0.74666 -1.86667,1.12 z"
             id="path811" />
          <path
             d="m 210.27967,152.82362 c -2.016,0.59733 -14.52265,9.14666 -11.05065,3.36 0.97066,-1.60534 2.20266,-2.912 3.91999,-4.06933 0.448,-0.29867 0.85867,-0.896 0.48533,-1.41867 -1.34399,-1.86666 -6.75732,5.97333 -7.09332,7.57866 -0.336,1.53067 1.008,1.904 3.21066,1.26933 3.696,-1.08266 9.29599,-4.55466 10.49066,-5.33866 0.224,-0.14933 0.448,-0.29867 0.56,-0.52267 0.224,-0.48533 0.14933,-0.97066 -0.52267,-0.85866 z m -5.59999,-4.368 c 0.52266,0.0373 1.904,-0.41066 1.75466,-1.30666 -0.0373,-0.224 -0.29866,-0.41067 -0.48533,-0.48534 -1.30667,-0.48533 -2.912,1.68 -1.26933,1.792 z"
             id="path808" />
          <path
             d="m 219.46362,153.04762 c -4.92799,4.18133 -13.36532,9.37066 -8.25066,0.37333 2.98667,-5.22666 5.86133,-8.92266 8.73599,-13.21599 0.56,-0.82133 3.472,-3.09866 2.65067,-4.14399 -0.70933,-0.97067 -2.016,0.93333 -2.38933,1.41866 -1.456,1.86667 -7.056,9.63199 -10.26666,15.30666 -6.90666,12.20798 6.27199,5.48799 10.56532,1.30666 0.37334,-0.37333 0.448,-0.59733 0.18667,-1.04533 -0.29867,-0.48533 -0.784,-0.26133 -1.232,0 z"
             id="path805" />
          <path
             d="m 225.62357,154.91428 c -1.15734,1.94134 -7.01867,11.34933 -7.20533,12.69333 -0.112,0.74666 0.672,0.896 1.04533,0.52266 0.52267,-0.48533 0.41067,-0.784 0.85867,-1.568 5.15199,-9.18399 10.82665,-18.36798 17.77065,-26.46931 1.38133,-1.64266 0.0373,-2.352 -1.38133,-0.52266 l -7.80266,10.41599 c -0.336,0.37333 -0.63467,0.784 -0.93334,1.232 -0.41066,-1.82934 -0.82133,-3.39733 -3.24799,-2.53867 -6.496,2.27733 -9.81866,14.48532 -2.688,8.77333 1.12,-0.896 2.27733,-1.792 3.584,-2.53867 z m -4.48,1.41867 c -1.60533,1.232 -1.86667,0.85866 -1.12,-1.04533 0.48533,-1.19467 4.256,-6.832 6.08533,-5.152 0.48533,0.448 0.448,1.75467 -0.0747,2.24 -1.53066,1.38133 -3.21066,2.688 -4.89066,3.95733 z"
             id="path802" />
          <path
             d="m 245.70887,158.61028 c 3.36,-5.22666 8.10133,-9.89332 11.16266,-15.34399 1.26933,-2.16533 3.21066,-6.19732 -1.456,-5.74933 -4.40533,0.448 -8.36266,3.024 -9.51999,8.10133 -0.448,2.016 0.74666,3.88266 1.86666,3.136 0.52267,-0.29867 0.63467,-0.70933 0.112,-1.08267 -0.37333,-0.29866 -0.74666,-0.26133 -0.672,-1.19466 0.26134,-3.136 3.136,-6.272 6.45866,-7.28 2.50133,-0.784 4.10667,-0.52266 2.576,2.38933 -3.21066,6.12267 -8.36266,11.83466 -12.84265,17.69599 -0.14934,0.224 -0.448,0.48533 -0.52267,0.70933 -0.26133,0.784 0.18667,1.344 1.008,0.93334 1.15733,-0.56 1.94133,-0.85867 3.248,-1.008 2.65066,-0.26134 5.37599,-0.26134 7.98932,-0.59734 1.15733,-0.18666 1.12,-1.568 -0.224,-1.41866 -0.74666,0.112 -1.49333,0.26133 -2.24,0.29866 -2.31466,0.14934 -4.62932,0.26134 -6.94399,0.41067 z"
             id="path799" />
        </g>
        <g
           aria-label="Child 3"
           id="text406"
           style="font-size:37.3333px;font-family:'Winter Sunday';-inkscape-font-specification:'Winter Sunday';text-align:center;text-anchor:middle;fill:#2d2d2d;stroke-width:1.00157">
          <path
             d="m 180.9591,190.3102 c 0.448,-0.56 0.336,-1.568 -0.59733,-1.15734 -0.48534,0.224 -1.26934,0.97067 -1.68,1.30667 -2.53867,2.50133 -6.608,5.89866 -9.89333,6.42133 -1.71733,0.29866 -2.38933,-0.56 -2.61333,-2.27734 -0.18666,-1.45599 0.14934,-2.98666 0.59734,-4.44266 2.01599,-6.27199 5.30132,-11.27466 9.96799,-15.71732 2.57599,-2.42666 5.86133,-4.66666 9.25866,-4.47999 1.97866,0.112 2.53866,1.60533 1.79199,3.58399 -0.93333,2.42667 -5.33866,8.02666 -7.95199,9.25866 -0.784,0.37333 -1.38133,0.59733 -1.26933,1.008 0.0747,0.336 0.59733,0.59733 0.896,0.56 3.32266,-0.224 14.07465,-12.17066 8.39999,-15.41865 -1.08266,-0.63467 -2.20266,-0.74667 -3.50933,-0.52267 -8.69866,1.82933 -19.56265,16.27732 -19.59998,25.72265 -0.0373,6.04799 5.00266,4.51732 8.54932,2.46399 1.904,-1.12 6.30933,-4.55466 7.65333,-6.30932 z"
             id="path832" />
          <path
             d="m 186.22309,190.3102 c 2.16533,-3.62134 4.36799,-7.20533 6.71999,-10.64 1.49333,-2.16533 3.248,-4.21866 5.152,-6.04799 0.37333,-0.37333 0.74666,-0.82133 0.29866,-1.30667 -0.448,-0.48533 -0.896,-0.14933 -1.30666,0.18667 -1.94133,1.68 -3.84533,4.256 -5.30133,6.38399 -3.472,5.07733 -6.68266,10.416 -10.15466,15.49333 -0.26133,0.41066 -0.52267,0.93333 -0.0373,1.30666 0.18666,0.14933 0.48533,0.14933 0.672,0.0747 0.26133,-0.112 0.70933,-0.59734 0.93333,-0.82134 1.30667,-1.11999 2.61333,-2.46399 4.06933,-3.47199 1.75466,-1.19467 1.94133,-1.456 2.8,0.37333 1.04533,2.38933 2.57599,2.76266 5.22666,1.12 1.60533,-1.008 3.54666,-2.16533 4.21866,-2.688 0.56,-0.448 0.56,-1.30666 -0.14933,-1.19466 -0.48533,0.0747 -2.53867,1.49333 -4.06933,2.42666 -2.05333,1.232 -3.024,1.82933 -4.144,-0.82133 -0.52266,-1.232 -0.97066,-2.42667 -3.06133,-1.49333 -0.672,0.336 -1.232,0.74666 -1.86666,1.12 z"
             id="path829" />
          <path
             d="m 209.63101,189.0782 c -2.01599,0.59733 -14.52265,9.14666 -11.05065,3.35999 0.97066,-1.60533 2.20266,-2.91199 3.91999,-4.06933 0.448,-0.29866 0.85867,-0.896 0.48534,-1.41866 -1.344,-1.86667 -6.75733,5.97333 -7.09333,7.57866 -0.336,1.53066 1.008,1.904 3.21066,1.26933 3.696,-1.08267 9.296,-4.55466 10.49066,-5.33866 0.224,-0.14933 0.448,-0.29867 0.56,-0.52267 0.224,-0.48533 0.14933,-0.97066 -0.52267,-0.85866 z m -5.59999,-4.368 c 0.52267,0.0373 1.904,-0.41067 1.75466,-1.30667 -0.0373,-0.224 -0.29866,-0.41066 -0.48533,-0.48533 -1.30666,-0.48533 -2.912,1.68 -1.26933,1.792 z"
             id="path826" />
          <path
             d="m 218.81496,189.3022 c -4.92799,4.18133 -13.36532,9.37065 -8.25066,0.37333 2.98667,-5.22666 5.86133,-8.92266 8.736,-13.21599 0.56,-0.82133 3.47199,-3.09866 2.65066,-4.144 -0.70933,-0.97066 -2.016,0.93334 -2.38933,1.41867 -1.456,1.86666 -7.05599,9.63199 -10.26666,15.30665 -6.90666,12.20799 6.272,5.488 10.56533,1.30667 0.37333,-0.37333 0.448,-0.59733 0.18666,-1.04533 -0.29866,-0.48534 -0.784,-0.26134 -1.232,0 z"
             id="path823" />
          <path
             d="m 224.97491,191.16886 c -1.15733,1.94133 -7.01866,11.34932 -7.20533,12.69332 -0.112,0.74667 0.672,0.896 1.04533,0.52267 0.52267,-0.48533 0.41067,-0.784 0.85867,-1.568 5.15199,-9.18399 10.82666,-18.36798 17.77065,-26.46931 1.38133,-1.64266 0.0373,-2.352 -1.38133,-0.52267 l -7.80266,10.416 c -0.336,0.37333 -0.63467,0.78399 -0.93333,1.23199 -0.41067,-1.82933 -0.82134,-3.39733 -3.248,-2.53866 -6.496,2.27733 -9.81866,14.48532 -2.688,8.77333 1.12,-0.896 2.27733,-1.792 3.584,-2.53867 z m -4.48,1.41867 c -1.60533,1.232 -1.86666,0.85866 -1.12,-1.04534 0.48534,-1.19466 4.256,-6.83199 6.08533,-5.15199 0.48533,0.448 0.448,1.75466 -0.0747,2.24 -1.53066,1.38133 -3.21066,2.68799 -4.89066,3.95733 z"
             id="path820" />
          <path
             d="m 247.41221,187.88353 c -0.85867,0.85867 -0.74667,1.19467 0.26133,1.86667 4.77867,3.39733 3.09867,5.15199 -2.27733,6.71999 -0.672,0.18667 -4.21866,0.70933 -3.58399,1.792 0.14933,0.26133 0.74666,0.37333 1.00799,0.336 2.94934,-0.448 11.83466,-3.024 8.4,-7.392 -0.672,-0.85866 -1.53067,-1.56799 -2.31467,-2.35199 1.904,-2.27733 9.22133,-10.63999 9.96799,-12.65599 0.448,-1.232 -0.14933,-2.016 -1.38133,-2.16533 -4.03199,-0.52267 -9.85599,3.21066 -11.49865,6.86932 -0.29867,0.74667 -0.41067,2.53867 0.93333,2.31467 1.232,-0.14934 0.59733,-0.41067 0.41066,-1.15733 -0.14933,-0.56 0.112,-1.12 0.56,-1.75467 1.97867,-2.76266 5.22667,-4.33066 8.54933,-4.85333 1.904,-0.336 0.896,0.74667 0.224,1.68 -2.76266,3.84533 -6.42133,7.87733 -9.25866,10.75199 z"
             id="path817" />
        </g>
        <path
           style="fill:#2d2d2d;stroke-width:1.00157"
           id="path754"
           d="m 147.1676,190.45468 c -1.99796,0.24239 -3.96555,0.68003 -5.96294,0.94208 -0.82255,-0.10093 -1.77152,-0.0314 -2.5485,-0.38125 -0.22885,-0.10303 -0.85667,-0.52288 -0.63748,-0.40064 1.89613,1.05748 3.7794,2.13785 5.6691,3.20678 -1.28689,-0.88665 -2.38008,-2.00553 -3.67439,-2.87931 -1.45758,-0.94018 -2.7856,-2.05723 -3.9618,-3.32847 -1.7115,-2.42516 -2.70001,-5.30247 -3.7477,-8.06305 -1.10579,-2.78035 -1.21287,-5.67837 -1.13839,-8.62127 0.30876,-3.55431 0.79815,-7.08905 1.17151,-10.63666 0.40372,-4.23864 0.82244,-8.47204 1.07416,-12.7232 0.26683,-3.67776 -0.0603,-7.3582 -0.46194,-11.01215 -0.44813,-3.55177 -0.46924,-7.1355 -0.73993,-10.69986 -0.34266,-3.07642 -1.16534,-6.05945 -1.81025,-9.07852 -0.67383,-2.54667 -1.02302,-5.16422 -1.5076,-7.75031 -0.33124,-2.07654 -0.99084,-4.07106 -1.60595,-6.07416 -0.34932,-1.17267 -0.52115,-2.38431 -0.79916,-3.574148 0,0 -6.73477,-3.235553 -6.73477,-3.235553 v 0 c 0.29274,1.206841 0.49321,2.425163 0.80252,3.627893 0.60719,1.992668 1.34219,3.951128 1.67081,6.018788 0.5217,2.59149 0.85168,5.2267 1.53305,7.78151 0.66684,2.99189 1.44685,5.95417 1.86385,8.99689 0.32603,3.57065 0.35299,7.16655 0.76358,10.73236 0.39225,3.62325 0.76337,7.26948 0.54277,10.91836 -0.22217,4.2419 -0.64932,8.462 -1.06196,12.68841 -0.38054,3.55646 -0.90821,7.09469 -1.25378,10.65526 -0.11428,3.02107 -0.0731,6.00526 1.016,8.87997 1.03125,2.8134 2.09557,5.67225 3.58934,8.27079 1.06418,1.38207 2.40953,2.50427 3.83445,3.50764 1.32662,0.85328 2.51013,1.84228 3.69711,2.88471 3.64441,2.13478 6.38265,4.96982 10.54284,4.5818 1.98967,-0.30559 3.96068,-0.75901 5.97185,-0.89973 0,0 -6.0964,-4.33496 -6.0964,-4.33496 z" />
        <path
           style="fill:#2d2d2d;stroke-width:1.00157"
           id="path757"
           d="m 151.38251,152.77811 c -2.43373,0.65978 -4.95639,0.88191 -7.46343,1.05356 -2.59468,-0.0915 -5.18305,-0.30796 -7.77435,-0.46463 -0.86123,-0.21412 -1.79535,-0.21035 -2.64787,-0.46328 -1.69881,-0.50401 -9.2994,-5.03905 4.00131,2.32648 -1.42856,-1.18052 -2.39934,-2.71635 -3.21825,-4.35186 -0.41081,-0.83144 -0.59552,-1.72921 -0.7368,-2.63694 0,0 -6.7038,-3.30232 -6.7038,-3.30232 v 0 c 0.11462,0.97324 0.26186,1.94411 0.65085,2.85314 0.78672,1.71955 1.73602,3.33655 3.10564,4.66545 4.77271,2.89463 6.6399,4.95222 11.52547,5.3043 2.60314,0.14235 5.20543,0.39656 7.81362,0.37128 2.56264,-0.2129 5.13163,-0.48759 7.62721,-1.13371 0,0 -6.1796,-4.22147 -6.1796,-4.22147 z" />
        <path
           style="fill:#2d2d2d;stroke-width:1.00157"
           id="path760"
           d="m 151.98055,119.24687 c -2.29421,-0.39947 -4.61619,-0.58425 -6.93823,-0.72387 -1.7959,-0.10585 -3.59494,-0.10932 -5.3932,-0.11433 -1.12804,-0.0686 -2.38701,-0.003 -3.45168,-0.42932 -1.11518,-0.33112 -2.17103,-0.79344 -3.30831,-1.05898 -0.59044,-0.14906 -1.20558,-0.10762 -1.77282,-0.35572 -1.62364,-0.71013 -10.31578,-5.9234 4.92901,2.80836 -1.2332,-0.85694 -2.38008,-1.84925 -3.47443,-2.87733 -1.03469,-0.96934 -1.63949,-2.21989 -2.20658,-3.49218 -0.47767,-1.08887 -0.59745,-2.26934 -0.69268,-3.44049 0,0 -6.67415,-3.34105 -6.67415,-3.34105 v 0 c 0.0758,1.23218 0.15501,2.48567 0.57747,3.65709 0.53694,1.34371 1.12778,2.67597 2.0987,3.77072 1.06836,1.07629 2.24234,2.02813 3.39551,3.01211 3.97418,2.31148 5.86591,4.10821 9.75584,4.81226 1.11377,0.33599 2.18867,0.78861 3.31955,1.071 1.1679,0.18549 2.35043,0.27798 3.53364,0.24669 1.77964,0.006 3.55997,0.0262 5.33718,0.12752 2.32353,0.14801 4.64758,0.36001 6.93063,0.83477 0,0 -5.96545,-4.50725 -5.96545,-4.50725 z" />
      </g>
    </g>
  </g>
</svg>
