<?xml version="1.0" encoding="UTF-8" standalone="no"?>
<!-- Created with Inkscape (http://www.inkscape.org/) -->

<svg
   width="300"
   height="260"
   viewBox="0 0 300 260"
   version="1.1"
   id="svg5"
   inkscape:version="1.2.2 (b0a8486, 2022-12-01)"
   sodipodi:docname="scene_with_tree.svg"
   xmlns:inkscape="http://www.inkscape.org/namespaces/inkscape"
   xmlns:sodipodi="http://sodipodi.sourceforge.net/DTD/sodipodi-0.dtd"
   xmlns="http://www.w3.org/2000/svg"
   xmlns:svg="http://www.w3.org/2000/svg">
  <sodipodi:namedview
     id="namedview7"
     pagecolor="#ffffff"
     bordercolor="#000000"
     borderopacity="0.25"
     inkscape:showpageshadow="2"
     inkscape:pageopacity="0.0"
     inkscape:pagecheckerboard="false"
     inkscape:deskcolor="#d1d1d1"
     inkscape:document-units="mm"
     showgrid="false"
     inkscape:zoom="1.3932941"
     inkscape:cx="137.0852"
     inkscape:cy="27.632357"
     inkscape:window-width="1920"
     inkscape:window-height="1016"
     inkscape:window-x="0"
     inkscape:window-y="0"
     inkscape:window-maximized="1"
     inkscape:current-layer="g604"
     showguides="false" />
  <defs
     id="defs2" />
  <g
     inkscape:label="Layer 1"
     inkscape:groupmode="layer"
     id="layer1">
    <g
       id="g604"
       transform="translate(-35.708473,-1.8106099)">
      <g
         aria-label="Parent "
         id="text236"
         style="font-size:37.3333px;font-family:'Winter Sunday';-inkscape-font-specification:'Winter Sunday';text-align:center;text-anchor:middle;fill:#2d2d2d;stroke-width:1.00157" />
      <path
         id="path1091"
         style="fill:#999999;stroke-width:0.61219;stroke:none"
         d="m 144.37173,178.37369 c 0.0386,0.5171 0.0839,1.03407 0.14325,1.54956 0.23976,2.21464 0.46553,4.44309 0.33069,6.67339 -0.1358,2.59278 -0.39602,5.17287 -0.64824,7.75618 -0.2326,2.17381 -0.5552,4.3359 -0.76642,6.51223 -0.0698,1.84657 -0.0449,3.67114 0.62078,5.42825 0.63033,1.71963 1.28118,3.46628 2.19421,5.05459 0.65046,0.84476 1.4725,1.53079 2.34345,2.14408 0.81088,0.52155 1.53437,1.12609 2.25988,1.76325 2.22758,1.30484 3.90136,3.03785 6.44418,2.80068 1.21615,-0.18678 2.4202,-0.46314 3.64948,-0.54915 l -3.72588,-2.65026 c -1.22121,0.14816 -2.42383,0.41525 -3.6447,0.57542 -0.13122,-0.0161 -0.27336,-0.0227 -0.41186,-0.031 -0.10699,-0.0802 -0.20518,-0.17086 -0.31636,-0.24592 -0.89091,-0.57467 -1.70212,-1.25724 -2.42104,-2.03425 -1.04613,-1.48233 -1.65055,-3.24189 -2.29093,-4.92924 -0.67589,-1.69943 -0.74151,-3.47068 -0.69599,-5.26947 0.18873,-2.17251 0.48808,-4.33308 0.71629,-6.50149 0.24676,-2.59078 0.50273,-5.17804 0.65659,-7.77647 0.1631,-2.24796 -0.0375,-4.4973 -0.28293,-6.73069 -0.14834,-1.17574 -0.22081,-2.35744 -0.28173,-3.53965 z m 7.25358,36.5807 c 0.16297,0.0909 0.32438,0.18438 0.48707,0.27577 -0.032,-0.0119 -0.0668,-0.0171 -0.0979,-0.0311 -0.13988,-0.063 -0.52315,-0.31945 -0.38918,-0.24473 z" />
      <path
         d="m 85.016251,105.51643 c -0.04564,0.47921 0.136915,0.8215 0.684577,0.50203 0.319469,-0.18256 2.692671,-4.03901 3.103417,-4.67795 0.296651,-0.4792 0.61612,-1.02686 0.91277,-1.43761 1.962455,-3.194694 4.130284,-6.320931 6.229654,-9.447168 0.365108,-0.57048 0.775854,-0.821492 1.437613,-0.867131 1.688624,-0.159734 3.765178,-0.136915 5.385338,0.387928 0.73022,0.251011 1.43762,0.638938 2.03092,1.118143 0.91277,0.753035 1.04968,1.757081 0.34229,2.738309 -2.07656,2.783948 -6.389394,4.358476 -9.652546,5.13433 -1.757082,0.433566 -3.60544,0.684577 -5.339703,1.209419 -0.775854,0.25101 -0.935589,1.14096 0.114096,0.88995 2.09937,-0.41075 4.24438,-0.93559 6.298112,-1.48325 2.761128,-0.730216 5.408161,-1.825539 7.690091,-3.582621 1.75708,-1.369154 3.26315,-3.445706 1.30069,-5.385342 -1.14096,-1.140962 -2.89804,-1.757082 -4.49539,-1.871177 -1.20942,-0.06846 -2.396021,-0.06846 -3.605441,-0.114097 0.570481,-0.616119 0.182554,-1.757082 -0.479204,-1.095323 -0.502023,0.502023 -0.524843,1.20942 -1.460432,1.48325 -0.547661,0.159735 -4.335656,1.049685 -3.491344,2.099371 0.273831,0.319469 0.547662,0.114096 0.775854,-0.09128 0.730216,-0.61612 1.346336,-0.867132 2.304744,-0.958409 -0.06846,0.114097 -0.114096,0.205374 -0.182554,0.31947 -2.030913,3.194694 -4.153103,6.320931 -6.229654,9.492806 -0.867131,1.300702 -3.149055,4.426932 -3.673898,5.636352 z"
         id="path778"
         style="font-size:37.3333px;font-family:'Winter Sunday';-inkscape-font-specification:'Winter Sunday';text-align:center;text-anchor:middle;fill:#999999;stroke-width:0.61219;stroke:none" />
      <path
         d="m 108.54288,100.81567 c -0.43357,3.19469 1.27787,3.0806 3.67389,1.75708 1.34634,-0.75303 2.73831,-1.68862 2.4873,-2.21347 -0.13692,-0.29665 -0.41075,-0.31946 -0.5933,-0.18255 -0.75303,0.5933 -1.50607,1.1866 -2.23629,1.64299 -1.0725,0.68457 -2.94368,1.57452 -2.28192,-0.88995 0.13692,-0.57049 0.29665,-1.118147 0.20537,-1.391978 -0.25101,-0.88995 -1.25505,-1.369155 -2.03091,-1.232239 -0.93559,0.159734 -1.7799,0.798674 -2.44166,1.574528 -1.46043,1.734259 -1.93964,4.175919 -0.15973,3.468529 1.04968,-0.41075 2.44165,-1.75709 3.37725,-2.53294 z m -3.42289,1.04968 c 0.52484,-1.1866 1.55171,-2.2591 2.80677,-2.692666 0.77585,-0.205373 0.77585,0.342289 -0.27384,1.186596 -0.57048,0.45639 -1.14096,0.91277 -1.68862,1.39198 -0.88995,0.68458 -1.16378,0.75303 -0.84431,0.11409 z"
         id="path775"
         style="font-size:37.3333px;font-family:'Winter Sunday';-inkscape-font-specification:'Winter Sunday';text-align:center;text-anchor:middle;fill:#999999;stroke-width:0.61219;stroke:none" />
      <path
         d="m 116.52958,98.282734 c -0.18255,-0.02282 0.0457,-0.547662 -0.41074,-0.502024 -0.7074,0.06846 -0.8215,0.502024 -0.88995,0.593301 -0.88996,1.483251 -1.98528,2.875229 -2.73831,4.426929 -0.13692,0.27383 -0.20537,0.54767 0.11409,0.7074 0.31947,0.20537 0.52485,0.0228 0.68458,-0.27383 0.91277,-1.36916 1.71144,-2.55576 2.89804,-3.742356 0.34229,-0.31947 0.68458,-0.456385 1.11815,-0.182555 0.4792,0.296651 3.14905,0.821491 3.10341,-0.09128 0,-0.479203 -0.45638,-0.410746 -0.79867,-0.387927 -0.73021,0.04564 -1.41479,0 -2.05373,-0.365108 -0.36511,-0.159734 -0.68458,-0.114096 -1.02687,-0.182553 z"
         id="path772"
         style="font-size:37.3333px;font-family:'Winter Sunday';-inkscape-font-specification:'Winter Sunday';text-align:center;text-anchor:middle;fill:#999999;stroke-width:0.61219;stroke:none" />
      <path
         d="m 121.70953,101.04386 c 0.1141,0.0228 0.20538,0.0456 0.31947,0.0685 1.55171,0.45638 4.19874,-0.63894 3.69672,-2.076551 -0.7074,-2.030913 -5.36253,0.456385 -5.11151,2.920861 0.29665,2.89805 8.46594,0.20538 10.10892,-1.09532 0.34229,-0.29665 0.2282,-0.5933 0.0913,-0.7074 -0.13691,-0.11409 -0.29665,-0.0685 -0.5933,0.0685 -1.64299,0.75303 -9.58408,3.90209 -8.51158,0.82149 z m 3.30879,-1.711441 c -0.73021,0.730211 -1.52888,1.209421 -2.60139,1.072501 0.54766,-0.889947 1.57453,-1.346332 2.60139,-1.072501 z"
         id="path769"
         style="font-size:37.3333px;font-family:'Winter Sunday';-inkscape-font-specification:'Winter Sunday';text-align:center;text-anchor:middle;fill:#999999;stroke-width:0.61219;stroke:none" />
      <path
         d="m 140.26156,100.10827 c -1.09532,0.13692 -8.71695,5.33971 -6.75449,2.05374 0.5933,-0.98123 1.34634,-1.77991 2.39602,-2.487303 0.38792,-0.27383 0.52484,-0.935588 0.0457,-1.255058 -0.45639,-0.251012 -1.5289,0.04564 -3.60545,1.049685 -0.0685,-0.205373 -0.11409,-0.661758 -0.29665,-0.775854 -0.31947,-0.205373 -0.57048,0.136915 -0.75303,0.365108 -0.36511,0.479204 -3.44571,4.312842 -3.49134,4.495392 -0.15974,0.5933 0.3651,0.84431 0.68457,0.50202 1.3007,-1.39197 2.71549,-3.24033 5.02023,-4.290016 0.54767,-0.251011 0.9356,-0.365107 1.1866,-0.433565 -1.23223,1.186601 -2.32755,3.034961 -2.46447,3.673901 -0.20537,0.93559 0.22819,1.46043 1.57452,1.0725 2.25911,-0.66176 5.75046,-2.66985 6.48067,-3.14905 0.13692,-0.0913 0.27383,-0.18256 0.34229,-0.31947 0.13691,-0.29665 0.0457,-0.57048 -0.36511,-0.50203 z"
         id="path766"
         style="font-size:37.3333px;font-family:'Winter Sunday';-inkscape-font-specification:'Winter Sunday';text-align:center;text-anchor:middle;fill:#999999;stroke-width:0.61219;stroke:none" />
      <path
         d="m 143.57034,94.928304 c -1.894,2.920864 -4.44975,6.731676 -6.54912,9.515626 -0.20537,0.27383 -1.00404,1.14096 -0.52485,1.48325 0.50203,0.36511 1.00405,-0.43357 1.23224,-0.77585 1.98528,-3.01214 4.56385,-6.868596 6.66323,-9.78946 0.22819,-0.319469 0.41074,-0.502023 0.82149,-0.524843 1.68862,-0.09128 4.19874,-0.06846 5.79608,-0.365108 0.18256,-0.02282 0.50203,-0.182553 0.54767,-0.387927 0.0684,-0.365108 -0.29665,-0.456384 -0.57048,-0.479204 -0.95841,-0.06846 -4.81487,0.547662 -5.36252,0.228193 1.39197,-1.734263 1.91681,-2.373201 3.83363,-3.582621 0.29665,-0.182555 0.45638,-0.479205 0.25101,-0.798674 -0.2282,-0.342288 -0.52484,-0.228193 -0.82149,-0.04564 -1.32352,0.889951 -2.80677,2.510118 -3.9021,3.787995 -0.4792,0.570481 -0.95841,0.821493 -1.71143,0.844312 -0.75304,0.02282 -5.04306,0.159735 -5.38535,0.479204 -0.34229,0.296651 -0.34229,0.547662 0.0913,0.638939 1.36915,0.273831 4.17592,-0.342288 5.59071,-0.228193 z"
         id="path763"
         style="font-size:37.3333px;font-family:'Winter Sunday';-inkscape-font-specification:'Winter Sunday';text-align:center;text-anchor:middle;fill:#999999;stroke-width:0.61219;stroke:none" />
      <g
         aria-label="Child 1"
         id="text398"
         style="font-size:37.3333px;font-family:'Winter Sunday';-inkscape-font-specification:'Winter Sunday';text-align:center;text-anchor:middle;fill:#999999;stroke-width:1.00157;stroke:none"
         transform="matrix(0.61123028,0,0,0.61123028,40.75946,51.248056)">
        <path
           d="m 181.14173,117.80102 c 0.448,-0.56 0.336,-1.568 -0.59734,-1.15734 -0.48533,0.224 -1.26933,0.97067 -1.67999,1.30667 -2.53867,2.50133 -6.608,5.89866 -9.89333,6.42133 -1.71733,0.29866 -2.38933,-0.56 -2.61333,-2.27733 -0.18667,-1.456 0.14933,-2.98667 0.59733,-4.44267 2.016,-6.27199 5.30133,-11.27465 9.96799,-15.71732 2.576,-2.426661 5.86133,-4.666659 9.25866,-4.479992 1.97867,0.112 2.53867,1.605332 1.792,3.583992 -0.93333,2.42667 -5.33866,8.02666 -7.95199,9.25866 -0.784,0.37334 -1.38133,0.59734 -1.26933,1.008 0.0747,0.336 0.59733,0.59734 0.896,0.56 3.32266,-0.224 14.07465,-12.170654 8.39999,-15.418651 -1.08267,-0.634667 -2.20267,-0.746667 -3.50933,-0.522667 -8.69866,1.829332 -19.56265,16.277318 -19.59999,25.722648 -0.0373,6.04799 5.00267,4.51733 8.54933,2.46399 1.904,-1.11999 6.30933,-4.55466 7.65333,-6.30932 z"
           id="path796"
           style="stroke:none;fill:#999999" />
        <path
           d="m 186.40571,117.80102 c 2.16534,-3.62133 4.368,-7.20533 6.72,-10.63999 1.49333,-2.16534 3.248,-4.21867 5.15199,-6.048 0.37334,-0.37333 0.74667,-0.82133 0.29867,-1.306664 -0.448,-0.485333 -0.896,-0.149334 -1.30667,0.186666 -1.94133,1.679998 -3.84533,4.255998 -5.30132,6.383998 -3.472,5.07733 -6.68266,10.41599 -10.15466,15.49332 -0.26134,0.41066 -0.52267,0.93333 -0.0373,1.30666 0.18667,0.14934 0.48534,0.14934 0.672,0.0747 0.26134,-0.112 0.70934,-0.59733 0.93334,-0.82133 1.30666,-1.12 2.61333,-2.464 4.06933,-3.472 1.75466,-1.19467 1.94133,-1.456 2.79999,0.37333 1.04534,2.38933 2.576,2.76267 5.22667,1.12 1.60533,-1.008 3.54666,-2.16533 4.21866,-2.688 0.56,-0.448 0.56,-1.30666 -0.14933,-1.19466 -0.48534,0.0747 -2.53867,1.49333 -4.06933,2.42666 -2.05334,1.232 -3.024,1.82933 -4.144,-0.82133 -0.52267,-1.232 -0.97067,-2.42666 -3.06133,-1.49333 -0.672,0.336 -1.232,0.74666 -1.86667,1.12 z"
           id="path793"
           style="stroke:none;fill:#999999" />
        <path
           d="m 209.81364,116.56902 c -2.016,0.59733 -14.52265,9.14666 -11.05066,3.36 0.97067,-1.60534 2.20267,-2.912 3.92,-4.06933 0.448,-0.29867 0.85867,-0.896 0.48533,-1.41867 -1.34399,-1.86667 -6.75732,5.97333 -7.09332,7.57866 -0.336,1.53067 1.008,1.904 3.21066,1.26933 3.696,-1.08266 9.29599,-4.55466 10.49066,-5.33866 0.224,-0.14933 0.448,-0.29867 0.56,-0.52267 0.224,-0.48533 0.14933,-0.97066 -0.52267,-0.85866 z m -5.59999,-4.368 c 0.52266,0.0373 1.904,-0.41066 1.75466,-1.30666 -0.0373,-0.224 -0.29866,-0.41067 -0.48533,-0.48534 -1.30667,-0.48533 -2.912,1.68 -1.26933,1.792 z"
           id="path790"
           style="stroke:none;fill:#999999" />
        <path
           d="m 218.99759,116.79302 c -4.92799,4.18133 -13.36532,9.37066 -8.25066,0.37333 2.98667,-5.22666 5.86133,-8.92266 8.73599,-13.21599 0.56,-0.82133 3.472,-3.09866 2.65067,-4.143994 -0.70933,-0.970666 -2.016,0.933334 -2.38933,1.418664 -1.456,1.86667 -7.056,9.63199 -10.26666,15.30665 -6.90666,12.20799 6.27199,5.488 10.56532,1.30667 0.37334,-0.37333 0.448,-0.59733 0.18667,-1.04533 -0.29867,-0.48534 -0.784,-0.26134 -1.232,0 z"
           id="path787"
           style="stroke:none;fill:#999999" />
        <path
           d="m 225.15753,118.65968 c -1.15733,1.94133 -7.01866,11.34933 -7.20532,12.69333 -0.112,0.74666 0.672,0.89599 1.04533,0.52266 0.52267,-0.48533 0.41067,-0.784 0.85867,-1.568 5.15199,-9.18399 10.82665,-18.36798 17.77065,-26.46931 1.38133,-1.64266 0.0373,-2.352 -1.38133,-0.52266 l -7.80266,10.41599 c -0.336,0.37333 -0.63467,0.784 -0.93334,1.232 -0.41066,-1.82934 -0.82133,-3.39733 -3.24799,-2.53867 -6.496,2.27733 -9.81866,14.48532 -2.688,8.77333 1.12,-0.896 2.27733,-1.792 3.58399,-2.53867 z m -4.47999,1.41867 c -1.60533,1.232 -1.86667,0.85866 -1.12,-1.04533 0.48533,-1.19467 4.256,-6.832 6.08533,-5.152 0.48533,0.448 0.448,1.75467 -0.0747,2.24 -1.53066,1.38133 -3.21066,2.688 -4.89066,3.95733 z"
           id="path784"
           style="stroke:none;fill:#999999" />
        <path
           d="m 252.18683,106.93703 c 0.85867,-0.85867 1.26934,-1.08267 0.52267,0.29866 -1.71733,3.21067 -7.39199,12.17066 -8.54933,14.11199 -0.784,1.30667 -5.52532,1.64267 -4.55466,3.17333 0.336,0.448 0.784,0.224 1.19467,0.0747 1.04533,-0.37334 2.05333,-0.82133 3.17333,-1.04533 1.08266,-0.224 7.09333,-0.97067 7.50399,-1.30667 0.85867,-0.63467 0.0747,-1.568 -0.48533,-1.30667 -0.896,0.448 -4.21866,0.74667 -5.264,0.70934 0.29867,-0.52267 0.52267,-1.008 0.82134,-1.53067 l 11.12532,-17.99465 c 0.26133,-0.41067 1.08267,-1.49333 0.48533,-1.97866 -0.224,-0.149338 -0.63466,-0.186671 -0.85866,-0.0747 -0.85867,0.48533 -8.512,8.13866 -9.856,9.44532 -0.33599,0.37334 -0.70933,0.672 -0.29866,1.15734 0.784,0.85866 2.05333,-0.784 2.576,-1.26934 0.85866,-0.82133 1.64266,-1.64266 2.46399,-2.46399 z"
           id="path781"
           style="stroke:none;fill:#999999" />
      </g>
      <g
         aria-label="Child 2"
         id="text402"
         style="font-size:37.3333px;font-family:'Winter Sunday';-inkscape-font-specification:'Winter Sunday';text-align:center;text-anchor:middle;fill:#999999;stroke-width:1.00157;stroke:none"
         transform="matrix(0.61123028,0,0,0.61123028,40.75946,51.248056)">
        <path
           d="m 181.60776,154.05562 c 0.448,-0.56 0.336,-1.568 -0.59734,-1.15733 -0.48533,0.22399 -1.26933,0.97066 -1.67999,1.30666 -2.53867,2.50133 -6.608,5.89866 -9.89333,6.42133 -1.71733,0.29867 -2.38933,-0.56 -2.61333,-2.27733 -0.18667,-1.456 0.14933,-2.98667 0.59733,-4.44267 2.016,-6.27199 5.30133,-11.27465 9.96799,-15.71732 2.576,-2.42666 5.86133,-4.66666 9.25866,-4.47999 1.97867,0.112 2.53867,1.60533 1.792,3.584 -0.93333,2.42666 -5.33866,8.02665 -7.95199,9.25865 -0.784,0.37334 -1.38133,0.59734 -1.26933,1.008 0.0747,0.336 0.59733,0.59734 0.896,0.56 3.32266,-0.224 14.07465,-12.17065 8.39999,-15.41865 -1.08267,-0.63467 -2.20267,-0.74667 -3.50933,-0.52267 -8.69866,1.82933 -19.56265,16.27732 -19.59999,25.72265 -0.0373,6.04799 5.00267,4.51733 8.54933,2.464 1.904,-1.12 6.30933,-4.55467 7.65333,-6.30933 z"
           id="path814"
           style="stroke:none;fill:#999999" />
        <path
           d="m 186.87174,154.05562 c 2.16534,-3.62133 4.368,-7.20533 6.72,-10.63999 1.49333,-2.16533 3.248,-4.21867 5.15199,-6.048 0.37334,-0.37333 0.74667,-0.82133 0.29867,-1.30666 -0.448,-0.48534 -0.896,-0.14934 -1.30666,0.18666 -1.94134,1.68 -3.84533,4.256 -5.30133,6.384 -3.472,5.07733 -6.68266,10.41599 -10.15466,15.49332 -0.26133,0.41066 -0.52267,0.93333 -0.0373,1.30666 0.18666,0.14934 0.48533,0.14934 0.67199,0.0747 0.26134,-0.112 0.70934,-0.59733 0.93334,-0.82133 1.30666,-1.12 2.61333,-2.464 4.06933,-3.472 1.75466,-1.19467 1.94133,-1.456 2.79999,0.37333 1.04534,2.38933 2.576,2.76267 5.22667,1.12 1.60533,-1.008 3.54666,-2.16533 4.21866,-2.688 0.56,-0.448 0.56,-1.30666 -0.14933,-1.19466 -0.48534,0.0747 -2.53867,1.49333 -4.06933,2.42666 -2.05333,1.232 -3.024,1.82933 -4.144,-0.82133 -0.52267,-1.232 -0.97067,-2.42666 -3.06133,-1.49333 -0.672,0.336 -1.232,0.74666 -1.86667,1.12 z"
           id="path811"
           style="stroke:none;fill:#999999" />
        <path
           d="m 210.27967,152.82362 c -2.016,0.59733 -14.52265,9.14666 -11.05065,3.36 0.97066,-1.60534 2.20266,-2.912 3.91999,-4.06933 0.448,-0.29867 0.85867,-0.896 0.48533,-1.41867 -1.34399,-1.86666 -6.75732,5.97333 -7.09332,7.57866 -0.336,1.53067 1.008,1.904 3.21066,1.26933 3.696,-1.08266 9.29599,-4.55466 10.49066,-5.33866 0.224,-0.14933 0.448,-0.29867 0.56,-0.52267 0.224,-0.48533 0.14933,-0.97066 -0.52267,-0.85866 z m -5.59999,-4.368 c 0.52266,0.0373 1.904,-0.41066 1.75466,-1.30666 -0.0373,-0.224 -0.29866,-0.41067 -0.48533,-0.48534 -1.30667,-0.48533 -2.912,1.68 -1.26933,1.792 z"
           id="path808"
           style="stroke:none;fill:#999999" />
        <path
           d="m 219.46362,153.04762 c -4.92799,4.18133 -13.36532,9.37066 -8.25066,0.37333 2.98667,-5.22666 5.86133,-8.92266 8.73599,-13.21599 0.56,-0.82133 3.472,-3.09866 2.65067,-4.14399 -0.70933,-0.97067 -2.016,0.93333 -2.38933,1.41866 -1.456,1.86667 -7.056,9.63199 -10.26666,15.30666 -6.90666,12.20798 6.27199,5.48799 10.56532,1.30666 0.37334,-0.37333 0.448,-0.59733 0.18667,-1.04533 -0.29867,-0.48533 -0.784,-0.26133 -1.232,0 z"
           id="path805"
           style="stroke:none;fill:#999999" />
        <path
           d="m 225.62357,154.91428 c -1.15734,1.94134 -7.01867,11.34933 -7.20533,12.69333 -0.112,0.74666 0.672,0.896 1.04533,0.52266 0.52267,-0.48533 0.41067,-0.784 0.85867,-1.568 5.15199,-9.18399 10.82665,-18.36798 17.77065,-26.46931 1.38133,-1.64266 0.0373,-2.352 -1.38133,-0.52266 l -7.80266,10.41599 c -0.336,0.37333 -0.63467,0.784 -0.93334,1.232 -0.41066,-1.82934 -0.82133,-3.39733 -3.24799,-2.53867 -6.496,2.27733 -9.81866,14.48532 -2.688,8.77333 1.12,-0.896 2.27733,-1.792 3.584,-2.53867 z m -4.48,1.41867 c -1.60533,1.232 -1.86667,0.85866 -1.12,-1.04533 0.48533,-1.19467 4.256,-6.832 6.08533,-5.152 0.48533,0.448 0.448,1.75467 -0.0747,2.24 -1.53066,1.38133 -3.21066,2.688 -4.89066,3.95733 z"
           id="path802"
           style="stroke:none;fill:#999999" />
        <path
           d="m 245.70887,158.61028 c 3.36,-5.22666 8.10133,-9.89332 11.16266,-15.34399 1.26933,-2.16533 3.21066,-6.19732 -1.456,-5.74933 -4.40533,0.448 -8.36266,3.024 -9.51999,8.10133 -0.448,2.016 0.74666,3.88266 1.86666,3.136 0.52267,-0.29867 0.63467,-0.70933 0.112,-1.08267 -0.37333,-0.29866 -0.74666,-0.26133 -0.672,-1.19466 0.26134,-3.136 3.136,-6.272 6.45866,-7.28 2.50133,-0.784 4.10667,-0.52266 2.576,2.38933 -3.21066,6.12267 -8.36266,11.83466 -12.84265,17.69599 -0.14934,0.224 -0.448,0.48533 -0.52267,0.70933 -0.26133,0.784 0.18667,1.344 1.008,0.93334 1.15733,-0.56 1.94133,-0.85867 3.248,-1.008 2.65066,-0.26134 5.37599,-0.26134 7.98932,-0.59734 1.15733,-0.18666 1.12,-1.568 -0.224,-1.41866 -0.74666,0.112 -1.49333,0.26133 -2.24,0.29866 -2.31466,0.14934 -4.62932,0.26134 -6.94399,0.41067 z"
           id="path799"
           style="stroke:none;fill:#999999" />
      </g>
      <g
         aria-label="Child 3"
         id="text406"
         style="font-size:37.3333px;font-family:'Winter Sunday';-inkscape-font-specification:'Winter Sunday';text-align:center;text-anchor:middle;fill:#999999;stroke-width:1.00157;stroke:none"
         transform="matrix(0.61123028,0,0,0.61123028,40.75946,51.248056)">
        <path
           d="m 180.9591,190.3102 c 0.448,-0.56 0.336,-1.568 -0.59733,-1.15734 -0.48534,0.224 -1.26934,0.97067 -1.68,1.30667 -2.53867,2.50133 -6.608,5.89866 -9.89333,6.42133 -1.71733,0.29866 -2.38933,-0.56 -2.61333,-2.27734 -0.18666,-1.45599 0.14934,-2.98666 0.59734,-4.44266 2.01599,-6.27199 5.30132,-11.27466 9.96799,-15.71732 2.57599,-2.42666 5.86133,-4.66666 9.25866,-4.47999 1.97866,0.112 2.53866,1.60533 1.79199,3.58399 -0.93333,2.42667 -5.33866,8.02666 -7.95199,9.25866 -0.784,0.37333 -1.38133,0.59733 -1.26933,1.008 0.0747,0.336 0.59733,0.59733 0.896,0.56 3.32266,-0.224 14.07465,-12.17066 8.39999,-15.41865 -1.08266,-0.63467 -2.20266,-0.74667 -3.50933,-0.52267 -8.69866,1.82933 -19.56265,16.27732 -19.59998,25.72265 -0.0373,6.04799 5.00266,4.51732 8.54932,2.46399 1.904,-1.12 6.30933,-4.55466 7.65333,-6.30932 z"
           id="path832"
           style="stroke:none;fill:#999999" />
        <path
           d="m 186.22309,190.3102 c 2.16533,-3.62134 4.36799,-7.20533 6.71999,-10.64 1.49333,-2.16533 3.248,-4.21866 5.152,-6.04799 0.37333,-0.37333 0.74666,-0.82133 0.29866,-1.30667 -0.448,-0.48533 -0.896,-0.14933 -1.30666,0.18667 -1.94133,1.68 -3.84533,4.256 -5.30133,6.38399 -3.472,5.07733 -6.68266,10.416 -10.15466,15.49333 -0.26133,0.41066 -0.52267,0.93333 -0.0373,1.30666 0.18666,0.14933 0.48533,0.14933 0.672,0.0747 0.26133,-0.112 0.70933,-0.59734 0.93333,-0.82134 1.30667,-1.11999 2.61333,-2.46399 4.06933,-3.47199 1.75466,-1.19467 1.94133,-1.456 2.8,0.37333 1.04533,2.38933 2.57599,2.76266 5.22666,1.12 1.60533,-1.008 3.54666,-2.16533 4.21866,-2.688 0.56,-0.448 0.56,-1.30666 -0.14933,-1.19466 -0.48533,0.0747 -2.53867,1.49333 -4.06933,2.42666 -2.05333,1.232 -3.024,1.82933 -4.144,-0.82133 -0.52266,-1.232 -0.97066,-2.42667 -3.06133,-1.49333 -0.672,0.336 -1.232,0.74666 -1.86666,1.12 z"
           id="path829"
           style="stroke:none;fill:#999999" />
        <path
           d="m 209.63101,189.0782 c -2.01599,0.59733 -14.52265,9.14666 -11.05065,3.35999 0.97066,-1.60533 2.20266,-2.91199 3.91999,-4.06933 0.448,-0.29866 0.85867,-0.896 0.48534,-1.41866 -1.344,-1.86667 -6.75733,5.97333 -7.09333,7.57866 -0.336,1.53066 1.008,1.904 3.21066,1.26933 3.696,-1.08267 9.296,-4.55466 10.49066,-5.33866 0.224,-0.14933 0.448,-0.29867 0.56,-0.52267 0.224,-0.48533 0.14933,-0.97066 -0.52267,-0.85866 z m -5.59999,-4.368 c 0.52267,0.0373 1.904,-0.41067 1.75466,-1.30667 -0.0373,-0.224 -0.29866,-0.41066 -0.48533,-0.48533 -1.30666,-0.48533 -2.912,1.68 -1.26933,1.792 z"
           id="path826"
           style="stroke:none;fill:#999999" />
        <path
           d="m 218.81496,189.3022 c -4.92799,4.18133 -13.36532,9.37065 -8.25066,0.37333 2.98667,-5.22666 5.86133,-8.92266 8.736,-13.21599 0.56,-0.82133 3.47199,-3.09866 2.65066,-4.144 -0.70933,-0.97066 -2.016,0.93334 -2.38933,1.41867 -1.456,1.86666 -7.05599,9.63199 -10.26666,15.30665 -6.90666,12.20799 6.272,5.488 10.56533,1.30667 0.37333,-0.37333 0.448,-0.59733 0.18666,-1.04533 -0.29866,-0.48534 -0.784,-0.26134 -1.232,0 z"
           id="path823"
           style="stroke:none;fill:#999999" />
        <path
           d="m 224.97491,191.16886 c -1.15733,1.94133 -7.01866,11.34932 -7.20533,12.69332 -0.112,0.74667 0.672,0.896 1.04533,0.52267 0.52267,-0.48533 0.41067,-0.784 0.85867,-1.568 5.15199,-9.18399 10.82666,-18.36798 17.77065,-26.46931 1.38133,-1.64266 0.0373,-2.352 -1.38133,-0.52267 l -7.80266,10.416 c -0.336,0.37333 -0.63467,0.78399 -0.93333,1.23199 -0.41067,-1.82933 -0.82134,-3.39733 -3.248,-2.53866 -6.496,2.27733 -9.81866,14.48532 -2.688,8.77333 1.12,-0.896 2.27733,-1.792 3.584,-2.53867 z m -4.48,1.41867 c -1.60533,1.232 -1.86666,0.85866 -1.12,-1.04534 0.48534,-1.19466 4.256,-6.83199 6.08533,-5.15199 0.48533,0.448 0.448,1.75466 -0.0747,2.24 -1.53066,1.38133 -3.21066,2.68799 -4.89066,3.95733 z"
           id="path820"
           style="stroke:none;fill:#999999" />
        <path
           d="m 247.41221,187.88353 c -0.85867,0.85867 -0.74667,1.19467 0.26133,1.86667 4.77867,3.39733 3.09867,5.15199 -2.27733,6.71999 -0.672,0.18667 -4.21866,0.70933 -3.58399,1.792 0.14933,0.26133 0.74666,0.37333 1.00799,0.336 2.94934,-0.448 11.83466,-3.024 8.4,-7.392 -0.672,-0.85866 -1.53067,-1.56799 -2.31467,-2.35199 1.904,-2.27733 9.22133,-10.63999 9.96799,-12.65599 0.448,-1.232 -0.14933,-2.016 -1.38133,-2.16533 -4.03199,-0.52267 -9.85599,3.21066 -11.49865,6.86932 -0.29867,0.74667 -0.41067,2.53867 0.93333,2.31467 1.232,-0.14934 0.59733,-0.41067 0.41066,-1.15733 -0.14933,-0.56 0.112,-1.12 0.56,-1.75467 1.97867,-2.76266 5.22667,-4.33066 8.54933,-4.85333 1.904,-0.336 0.896,0.74667 0.224,1.68 -2.76266,3.84533 -6.42133,7.87733 -9.25866,10.75199 z"
           id="path817"
           style="stroke:none;fill:#999999" />
      </g>
      <path
         style="fill:#999999;stroke-width:0.61219;stroke:none"
         id="path754"
         d="m 130.71275,167.65972 c -1.22121,0.14816 -2.42386,0.41566 -3.64473,0.57583 -0.50276,-0.0617 -1.0828,-0.0192 -1.55772,-0.23303 -0.13988,-0.063 -0.52362,-0.3196 -0.38964,-0.24488 1.15897,0.64636 2.31008,1.30671 3.46512,1.96008 -0.78658,-0.54195 -1.45477,-1.22584 -2.2459,-1.75992 -0.89091,-0.57467 -1.70264,-1.25745 -2.42157,-2.03447 -1.04612,-1.48233 -1.65033,-3.24103 -2.29071,-4.92838 -0.67589,-1.69943 -0.74134,-3.47079 -0.69581,-5.26958 0.18872,-2.1725 0.48785,-4.33304 0.71606,-6.50145 0.24676,-2.59078 0.5027,-5.17836 0.65656,-7.7768 0.16309,-2.24796 -0.0369,-4.49756 -0.28235,-6.73096 -0.27392,-2.17095 -0.28682,-4.36143 -0.45227,-6.54008 -0.20945,-1.8804 -0.71229,-3.70372 -1.10648,-5.54907 -0.41187,-1.5566 -0.6253,-3.15652 -0.92149,-4.73722 -0.20247,-1.26924 -0.60563,-2.48835 -0.98161,-3.71271 -0.21351,-0.71677 -0.31854,-1.45736 -0.48847,-2.18463 0,0 -4.11649,-1.97767 -4.11649,-1.97767 v 0 c 0.17893,0.73766 0.30146,1.48234 0.49052,2.21748 0.37113,1.21798 0.82039,2.41505 1.02125,3.67887 0.31888,1.58399 0.52057,3.19472 0.93705,4.75629 0.40759,1.82874 0.88436,3.63937 1.13924,5.49917 0.19928,2.18249 0.21576,4.38042 0.46672,6.55995 0.23976,2.21464 0.4666,4.44332 0.33176,6.67363 -0.1358,2.59278 -0.39688,5.17223 -0.6491,7.75554 -0.2326,2.17382 -0.55513,4.33649 -0.76635,6.51282 -0.0699,1.84657 -0.0447,3.67059 0.62101,5.4277 0.63033,1.71964 1.28087,3.46705 2.19391,5.05536 0.65046,0.84476 1.47278,1.53069 2.34373,2.14398 0.81087,0.52155 1.53427,1.12605 2.25979,1.76322 2.22757,1.30484 3.90127,3.0377 6.4441,2.80053 1.21615,-0.18678 2.42089,-0.46393 3.65018,-0.54994 0,0 -3.72631,-2.64966 -3.72631,-2.64966 z" />
      <path
         style="fill:#999999;stroke-width:0.61219;stroke:none"
         id="path757"
         d="m 133.28903,144.63066 c -1.48757,0.40328 -3.02949,0.53905 -4.56187,0.64397 -1.58595,-0.0559 -3.16804,-0.18823 -4.75192,-0.284 -0.52641,-0.13087 -1.09737,-0.12857 -1.61846,-0.28317 -1.03836,-0.30806 -5.68407,-3.08002 2.44573,1.42202 -0.87318,-0.72157 -1.46655,-1.66032 -1.9671,-2.65999 -0.2511,-0.5082 -0.364,-1.05695 -0.45035,-1.61178 0,0 -4.09757,-2.01848 -4.09757,-2.01848 v 0 c 0.0701,0.59488 0.16006,1.1883 0.39782,1.74393 0.48087,1.05104 1.06111,2.0394 1.89826,2.85166 2.91723,1.76929 4.05851,3.02695 7.04472,3.24215 1.59112,0.087 3.18172,0.24239 4.77592,0.22694 1.56636,-0.13013 3.13661,-0.29803 4.66198,-0.69296 0,0 -3.77716,-2.58029 -3.77716,-2.58029 z" />
      <path
         style="fill:#999999;stroke-width:0.61219;stroke:none"
         id="path760"
         d="m 133.65457,124.13535 c -1.40229,-0.24416 -2.82155,-0.35711 -4.24085,-0.44245 -1.09771,-0.0647 -2.19734,-0.0668 -3.29649,-0.0699 -0.68949,-0.0419 -1.45901,-0.002 -2.10977,-0.26241 -0.68163,-0.20239 -1.327,-0.48498 -2.02214,-0.64728 -0.36089,-0.0911 -0.73689,-0.0658 -1.0836,-0.21743 -0.99242,-0.43405 -6.30532,-3.62056 3.01276,1.71655 -0.75377,-0.52378 -1.45478,-1.13031 -2.12368,-1.75871 -0.63243,-0.59249 -1.0021,-1.35686 -1.34873,-2.13452 -0.29196,-0.66555 -0.36518,-1.38709 -0.42338,-2.10294 0,0 -4.07945,-2.04215 -4.07945,-2.04215 v 0 c 0.0463,0.75315 0.0948,1.51932 0.35297,2.23533 0.3282,0.82131 0.68934,1.63563 1.28279,2.30478 0.65301,0.65786 1.37059,1.23965 2.07544,1.84109 2.42914,1.41285 3.58542,2.51106 5.96306,2.9414 0.68077,0.20537 1.33779,0.48202 2.02901,0.65463 0.71386,0.11337 1.43666,0.16991 2.15987,0.15078 1.08777,0.004 2.17596,0.016 3.26225,0.0779 1.42021,0.0905 2.84074,0.22005 4.23621,0.51024 0,0 -3.64627,-2.75497 -3.64627,-2.75497 z" />
      <path
         style="fill:#999999;stroke-width:0.61219;stroke:none"
         id="path1093"
         d="m 160.19334,192.51861 c -1.48757,0.40327 -3.0295,0.53905 -4.56188,0.64396 -1.58594,-0.0559 -3.16803,-0.18823 -4.75191,-0.28399 -0.52641,-0.13088 -1.09738,-0.12858 -1.61846,-0.28317 -1.03837,-0.30807 -5.68408,-3.08002 2.44572,1.42201 -0.87318,-0.72157 -1.46655,-1.66031 -1.96709,-2.65999 -0.2511,-0.5082 -0.364,-1.05694 -0.45036,-1.61177 0,0 -4.09756,-2.01848 -4.09756,-2.01848 v 0 c 0.0701,0.59487 0.16005,1.1883 0.39782,1.74392 0.48086,1.05104 1.0611,2.0394 1.89826,2.85167 2.91722,1.76928 4.05851,3.02694 7.04471,3.24215 1.59112,0.087 3.18172,0.24239 4.77592,0.22693 1.56637,-0.13013 3.13661,-0.29803 4.66199,-0.69295 0,0 -3.77716,-2.58029 -3.77716,-2.58029 z" />
      <g
         aria-label="Grandchild 1"
         id="text1220"
         style="font-size:37.3333px;font-family:'Winter Sunday';-inkscape-font-specification:'Winter Sunday';text-align:center;text-anchor:middle;fill:#999999;stroke-width:1.00157;stroke:none"
         transform="matrix(0.61123028,0,0,0.61123028,-27.529093,99.979229)">
        <path
           d="m 336.98284,154.68133 c -2.20266,1.26933 -16.01598,9.93066 -16.46398,4.256 -0.112,-1.49333 0.41066,-2.94933 1.08266,-4.29333 2.98667,-6.23466 11.16266,-16.20265 18.74132,-18.14399 2.576,-0.63466 4.06933,0.672 3.77066,3.09867 -0.224,1.75466 -1.64266,4.55466 -2.76266,6.04799 -0.41067,0.56 -2.016,1.60534 -1.64267,2.20267 0.29867,0.448 0.85867,0.37333 1.26934,0.112 2.20266,-1.30667 4.14399,-5.936 4.59199,-8.25066 0.52267,-3.09867 -1.82933,-5.11466 -5.15199,-4.55466 -8.176,1.34399 -21.05598,15.94132 -21.39198,23.33331 -0.112,2.8 1.82933,4.144 4.77866,3.65866 4.10666,-0.70933 7.39199,-3.21066 11.27466,-4.55466 l -0.18667,0.52267 c -0.85867,1.19466 -6.98133,9.66932 -7.09333,10.30399 -0.224,1.344 1.04533,1.08266 1.86667,-0.37334 2.76266,-4.62933 6.23466,-9.25865 9.93065,-13.29065 1.30667,0.112 1.71734,-0.112 2.98667,0.48533 0.48533,0.224 0.896,0.0747 1.15733,-0.41066 0.37333,-0.82134 -0.52267,-1.08267 -1.15733,-1.15734 -4.592,-0.52266 -9.37066,-0.74666 -13.92532,0.0373 -1.97867,0.29866 -1.94133,1.82933 -0.0747,1.41866 2.61333,-0.59733 5.67466,-0.672 8.39999,-0.448 z"
           id="path1230"
           style="stroke:none;fill:#999999" />
        <path
           d="m 351.20682,152.628 c -0.29867,-0.0373 0.0747,-0.896 -0.672,-0.82133 -1.15734,0.112 -1.344,0.82133 -1.456,0.97066 -1.456,2.42667 -3.248,4.704 -4.48,7.24266 -0.224,0.448 -0.336,0.896 0.18667,1.15734 0.52266,0.336 0.85866,0.0373 1.12,-0.448 1.49333,-2.24 2.79999,-4.18133 4.74133,-6.12266 0.56,-0.52267 1.11999,-0.74667 1.82933,-0.29867 0.784,0.48533 5.15199,1.344 5.07733,-0.14933 0,-0.784 -0.74667,-0.672 -1.30667,-0.63467 -1.19466,0.0747 -2.31466,0 -3.36,-0.59733 -0.59733,-0.26134 -1.12,-0.18667 -1.67999,-0.29867 z"
           id="path1232"
           style="stroke:none;fill:#999999" />
        <path
           d="m 364.46011,156.772 c -0.70934,5.22666 2.09066,5.03999 6.01066,2.87466 2.20266,-1.232 4.47999,-2.76266 4.06933,-3.62133 -0.224,-0.48533 -0.672,-0.52267 -0.97067,-0.29867 -1.232,0.97067 -2.464,1.94134 -3.65866,2.688 -1.75467,1.12 -4.816,2.576 -3.73333,-1.456 0.224,-0.93333 0.48533,-1.82933 0.336,-2.27733 -0.41067,-1.456 -2.05333,-2.24 -3.32267,-2.016 -1.53066,0.26134 -2.91199,1.30667 -3.99466,2.576 -2.38933,2.83733 -3.17333,6.832 -0.26133,5.67466 1.71733,-0.672 3.99466,-2.87466 5.52533,-4.14399 z m -5.6,1.71733 c 0.85867,-1.94133 2.53867,-3.696 4.592,-4.40533 1.26933,-0.336 1.26933,0.56 -0.448,1.94133 -0.93333,0.74667 -1.86667,1.49333 -2.76267,2.27733 -1.456,1.12 -1.90399,1.232 -1.38133,0.18667 z"
           id="path1234"
           style="stroke:none;fill:#999999" />
        <path
           d="m 389.54804,155.61466 c -1.792,0.224 -14.26132,8.736 -11.05065,3.36 0.97066,-1.60533 2.20266,-2.912 3.91999,-4.06933 0.63467,-0.448 0.85867,-1.53066 0.0747,-2.05333 -0.74667,-0.41067 -2.50133,0.0747 -5.89866,1.71733 -0.112,-0.336 -0.18667,-1.08266 -0.48534,-1.26933 -0.52266,-0.336 -0.93333,0.224 -1.23199,0.59733 -0.59734,0.784 -5.63733,7.056 -5.712,7.35466 -0.26133,0.97067 0.59733,1.38134 1.12,0.82134 2.128,-2.27734 4.44266,-5.30133 8.21333,-7.01866 0.89599,-0.41067 1.53066,-0.59734 1.94133,-0.70934 -2.016,1.94133 -3.808,4.96533 -4.032,6.01066 -0.336,1.53067 0.37333,2.38934 2.576,1.75467 3.696,-1.08267 9.40799,-4.368 10.60266,-5.152 0.224,-0.14933 0.448,-0.29866 0.56,-0.52266 0.224,-0.48534 0.0747,-0.93334 -0.59734,-0.82134 z"
           id="path1236"
           style="stroke:none;fill:#999999" />
        <path
           d="m 394.99869,157.70533 c -1.15733,1.94133 -7.01866,11.34932 -7.20533,12.69332 -0.112,0.74667 0.672,0.896 1.04533,0.52267 0.52267,-0.48533 0.41067,-0.784 0.85867,-1.568 5.152,-9.18399 10.82666,-18.36798 17.77065,-26.46931 1.38133,-1.64267 0.0373,-2.352 -1.38133,-0.52267 l -7.80266,10.41599 c -0.336,0.37334 -0.63467,0.784 -0.93333,1.232 -0.41067,-1.82933 -0.82134,-3.39733 -3.248,-2.53866 -6.49599,2.27733 -9.81866,14.48532 -2.688,8.77332 1.12,-0.896 2.27733,-1.79199 3.584,-2.53866 z m -4.48,1.41867 c -1.60533,1.23199 -1.86666,0.85866 -1.12,-1.04534 0.48534,-1.19466 4.256,-6.83199 6.08533,-5.15199 0.48533,0.448 0.448,1.75466 -0.0747,2.24 -1.53067,1.38133 -3.21067,2.68799 -4.89067,3.95733 z"
           id="path1238"
           style="stroke:none;fill:#999999" />
        <path
           d="m 416.42799,156.95866 c 0.59734,-0.37333 0.37334,-1.41866 -0.336,-1.26933 -1.792,0.37333 -9.18399,4.66666 -12.69332,4.66666 -3.28533,0 0.37333,-5.07732 2.09066,-5.71199 2.16534,-0.784 1.30667,1.97866 2.76267,1.49333 1.12,-0.41067 0.336,-1.94133 -0.224,-2.42666 -3.09866,-2.61333 -6.86933,2.50133 -7.50399,4.81599 -0.784,3.06133 2.79999,3.73333 5.18932,2.87467 3.136,-1.08267 9.408,-3.65867 10.71466,-4.44267 z"
           id="path1240"
           style="stroke:none;fill:#999999" />
        <path
           d="m 416.87596,156.84666 c 2.16533,-3.62133 4.36799,-7.20532 6.71999,-10.63999 1.49333,-2.16533 3.248,-4.21866 5.152,-6.04799 0.37333,-0.37334 0.74666,-0.82133 0.29866,-1.30667 -0.448,-0.48533 -0.896,-0.14933 -1.30666,0.18667 -1.94133,1.68 -3.84533,4.256 -5.30133,6.38399 -3.472,5.07733 -6.68266,10.41599 -10.15466,15.49332 -0.26133,0.41067 -0.52267,0.93334 -0.0373,1.30667 0.18666,0.14933 0.48533,0.14933 0.672,0.0747 0.26133,-0.112 0.70933,-0.59734 0.93333,-0.82134 1.30666,-1.12 2.61333,-2.46399 4.06933,-3.47199 1.75466,-1.19467 1.94133,-1.456 2.8,0.37333 1.04533,2.38933 2.57599,2.76266 5.22666,1.12 1.60533,-1.008 3.54666,-2.16533 4.21866,-2.688 0.56,-0.448 0.56,-1.30667 -0.14933,-1.19467 -0.48533,0.0747 -2.53867,1.49334 -4.06933,2.42667 -2.05333,1.232 -3.024,1.82933 -4.144,-0.82133 -0.52266,-1.232 -0.97066,-2.42667 -3.06133,-1.49334 -0.672,0.336 -1.232,0.74667 -1.86666,1.12 z"
           id="path1242"
           style="stroke:none;fill:#999999" />
        <path
           d="m 440.28389,155.61466 c -2.016,0.59734 -14.52265,9.14666 -11.05066,3.36 0.97067,-1.60533 2.20267,-2.912 3.92,-4.06933 0.448,-0.29866 0.85867,-0.896 0.48533,-1.41866 -1.344,-1.86667 -6.75733,5.97332 -7.09333,7.57866 -0.33599,1.53066 1.008,1.904 3.21067,1.26933 3.696,-1.08267 9.29599,-4.55466 10.49066,-5.33866 0.224,-0.14934 0.448,-0.29867 0.56,-0.52267 0.224,-0.48533 0.14933,-0.97067 -0.52267,-0.85867 z m -5.6,-4.36799 c 0.52267,0.0373 1.904,-0.41067 1.75467,-1.30667 -0.0373,-0.224 -0.29867,-0.41066 -0.48533,-0.48533 -1.30667,-0.48533 -2.912,1.68 -1.26934,1.792 z"
           id="path1244"
           style="stroke:none;fill:#999999" />
        <path
           d="m 449.46783,155.83866 c -4.92799,4.18133 -13.36532,9.37066 -8.25066,0.37334 2.98667,-5.22666 5.86133,-8.92266 8.73599,-13.21599 0.56,-0.82133 3.472,-3.09867 2.65067,-4.144 -0.70933,-0.97066 -2.016,0.93333 -2.38933,1.41867 -1.456,1.86666 -7.056,9.63199 -10.26666,15.30665 -6.90666,12.20799 6.27199,5.488 10.56532,1.30667 0.37334,-0.37334 0.448,-0.59734 0.18667,-1.04534 -0.29867,-0.48533 -0.784,-0.26133 -1.232,0 z"
           id="path1246"
           style="stroke:none;fill:#999999" />
        <path
           d="m 455.62777,157.70533 c -1.15733,1.94133 -7.01866,11.34932 -7.20533,12.69332 -0.112,0.74667 0.672,0.896 1.04534,0.52267 0.52266,-0.48533 0.41066,-0.784 0.85866,-1.568 5.152,-9.18399 10.82666,-18.36798 17.77065,-26.46931 1.38134,-1.64267 0.0373,-2.352 -1.38133,-0.52267 l -7.80266,10.41599 c -0.336,0.37334 -0.63466,0.784 -0.93333,1.232 -0.41067,-1.82933 -0.82133,-3.39733 -3.248,-2.53866 -6.49599,2.27733 -9.81866,14.48532 -2.688,8.77332 1.12,-0.896 2.27734,-1.79199 3.584,-2.53866 z m -4.48,1.41867 c -1.60533,1.23199 -1.86666,0.85866 -1.11999,-1.04534 0.48533,-1.19466 4.25599,-6.83199 6.08532,-5.15199 0.48534,0.448 0.448,1.75466 -0.0747,2.24 -1.53067,1.38133 -3.21067,2.68799 -4.89067,3.95733 z"
           id="path1248"
           style="stroke:none;fill:#999999" />
        <path
           d="m 482.65707,145.98267 c 0.85867,-0.85866 1.26934,-1.08266 0.52267,0.29867 -1.71733,3.21066 -7.39199,12.17066 -8.54933,14.11199 -0.784,1.30666 -5.52532,1.64266 -4.55466,3.17333 0.336,0.448 0.784,0.224 1.19467,0.0747 1.04533,-0.37333 2.05333,-0.82133 3.17333,-1.04533 1.08266,-0.224 7.09333,-0.97066 7.50399,-1.30666 0.85867,-0.63467 0.0747,-1.568 -0.48533,-1.30667 -0.896,0.448 -4.21866,0.74667 -5.264,0.70933 0.29867,-0.52266 0.52267,-1.008 0.82134,-1.53066 l 11.12532,-17.99465 c 0.26133,-0.41067 1.08267,-1.49334 0.48533,-1.97867 -0.224,-0.14933 -0.63466,-0.18666 -0.85866,-0.0747 -0.85867,0.48533 -8.512,8.13866 -9.856,9.44532 -0.33599,0.37333 -0.70933,0.672 -0.29866,1.15733 0.784,0.85867 2.05333,-0.784 2.576,-1.26933 0.85866,-0.82133 1.64266,-1.64266 2.46399,-2.464 z"
           id="path1250"
           style="stroke:none;fill:#999999" />
      </g>
      <g
         aria-label="Grandchild 2"
         id="text1228"
         style="font-size:37.3333px;font-family:'Winter Sunday';-inkscape-font-specification:'Winter Sunday';text-align:center;text-anchor:middle;fill:#999999;stroke-width:1.00157;stroke:none"
         transform="matrix(0.61123028,0,0,0.61123028,-30.778174,77.043738)">
        <path
           d="m 338.37679,227.38447 c -2.20266,1.26933 -16.01598,9.93066 -16.46398,4.256 -0.112,-1.49333 0.41066,-2.94933 1.08266,-4.29333 2.98667,-6.23466 11.16266,-16.20265 18.74132,-18.14399 2.576,-0.63466 4.06933,0.672 3.77066,3.09867 -0.224,1.75466 -1.64266,4.55466 -2.76266,6.04799 -0.41067,0.56 -2.016,1.60534 -1.64267,2.20267 0.29867,0.448 0.85867,0.37333 1.26933,0.112 2.20267,-1.30667 4.144,-5.936 4.592,-8.25066 0.52267,-3.09867 -1.82933,-5.11466 -5.15199,-4.55466 -8.176,1.34399 -21.05599,15.94132 -21.39199,23.33331 -0.112,2.8 1.82934,4.144 4.77867,3.65866 4.10666,-0.70933 7.39199,-3.21066 11.27465,-4.55466 l -0.18666,0.52267 c -0.85867,1.19466 -6.98133,9.66932 -7.09333,10.30399 -0.224,1.344 1.04533,1.08266 1.86666,-0.37334 2.76267,-4.62933 6.23467,-9.25865 9.93066,-13.29065 1.30667,0.112 1.71733,-0.112 2.98667,0.48533 0.48533,0.224 0.896,0.0747 1.15733,-0.41066 0.37333,-0.82134 -0.52267,-1.08267 -1.15733,-1.15734 -4.592,-0.52266 -9.37066,-0.74666 -13.92532,0.0373 -1.97867,0.29866 -1.94134,1.82933 -0.0747,1.41866 2.61333,-0.59733 5.67466,-0.672 8.39999,-0.448 z"
           id="path1253"
           style="stroke:none;fill:#999999" />
        <path
           d="m 352.60076,225.33114 c -0.29866,-0.0373 0.0747,-0.896 -0.672,-0.82133 -1.15733,0.112 -1.34399,0.82133 -1.45599,0.97066 -1.456,2.42667 -3.248,4.704 -4.48,7.24266 -0.224,0.448 -0.336,0.896 0.18667,1.15734 0.52266,0.336 0.85866,0.0373 1.11999,-0.448 1.49334,-2.24 2.8,-4.18133 4.74133,-6.12266 0.56,-0.52267 1.12,-0.74667 1.82934,-0.29867 0.78399,0.48533 5.15199,1.344 5.07732,-0.14933 0,-0.784 -0.74666,-0.672 -1.30666,-0.63467 -1.19467,0.0747 -2.31467,0 -3.36,-0.59733 -0.59733,-0.26134 -1.12,-0.18667 -1.68,-0.29867 z"
           id="path1255"
           style="stroke:none;fill:#999999" />
        <path
           d="m 365.85405,229.47514 c -0.70933,5.22666 2.09067,5.03999 6.01067,2.87466 2.20266,-1.232 4.47999,-2.76266 4.06933,-3.62133 -0.224,-0.48533 -0.672,-0.52266 -0.97067,-0.29867 -1.232,0.97067 -2.464,1.94134 -3.65866,2.688 -1.75467,1.12 -4.816,2.576 -3.73333,-1.456 0.224,-0.93333 0.48533,-1.82933 0.336,-2.27733 -0.41067,-1.456 -2.05334,-2.24 -3.32267,-2.016 -1.53066,0.26134 -2.912,1.30667 -3.99466,2.576 -2.38933,2.83733 -3.17333,6.832 -0.26133,5.67466 1.71733,-0.672 3.99466,-2.87466 5.52532,-4.14399 z m -5.59999,1.71733 c 0.85867,-1.94133 2.53866,-3.696 4.592,-4.40533 1.26933,-0.336 1.26933,0.56 -0.448,1.94133 -0.93334,0.74667 -1.86667,1.49333 -2.76267,2.27733 -1.456,1.12 -1.904,1.232 -1.38133,0.18667 z"
           id="path1257"
           style="stroke:none;fill:#999999" />
        <path
           d="m 390.94199,228.3178 c -1.792,0.224 -14.26132,8.736 -11.05066,3.36 0.97067,-1.60533 2.20267,-2.912 3.92,-4.06933 0.63467,-0.448 0.85867,-1.53066 0.0747,-2.05333 -0.74667,-0.41067 -2.50133,0.0747 -5.89866,1.71733 -0.112,-0.336 -0.18667,-1.08266 -0.48534,-1.26933 -0.52266,-0.336 -0.93333,0.224 -1.232,0.59733 -0.59733,0.784 -5.63733,7.056 -5.71199,7.35466 -0.26134,0.97067 0.59733,1.38134 1.12,0.82134 2.128,-2.27734 4.44266,-5.30133 8.21332,-7.01866 0.896,-0.41067 1.53067,-0.59734 1.94134,-0.70934 -2.016,1.94133 -3.808,4.96533 -4.032,6.01066 -0.336,1.53067 0.37333,2.38934 2.576,1.75467 3.69599,-1.08267 9.40799,-4.368 10.60265,-5.152 0.224,-0.14933 0.448,-0.29866 0.56,-0.52266 0.224,-0.48534 0.0747,-0.93333 -0.59733,-0.82134 z"
           id="path1259"
           style="stroke:none;fill:#999999" />
        <path
           d="m 396.39264,230.40847 c -1.15734,1.94133 -7.01866,11.34932 -7.20533,12.69332 -0.112,0.74667 0.672,0.896 1.04533,0.52267 0.52267,-0.48533 0.41067,-0.784 0.85867,-1.568 5.15199,-9.18399 10.82666,-18.36798 17.77065,-26.46931 1.38133,-1.64267 0.0373,-2.352 -1.38133,-0.52267 l -7.80266,10.41599 c -0.336,0.37334 -0.63467,0.784 -0.93333,1.232 -0.41067,-1.82933 -0.82134,-3.39733 -3.248,-2.53866 -6.496,2.27733 -9.81866,14.48532 -2.688,8.77332 1.12,-0.89599 2.27733,-1.79199 3.584,-2.53866 z m -4.48,1.41867 c -1.60533,1.23199 -1.86666,0.85866 -1.12,-1.04534 0.48533,-1.19466 4.256,-6.83199 6.08533,-5.15199 0.48533,0.448 0.448,1.75466 -0.0747,2.24 -1.53066,1.38133 -3.21066,2.68799 -4.89066,3.95733 z"
           id="path1261"
           style="stroke:none;fill:#999999" />
        <path
           d="m 417.82194,229.6618 c 0.59733,-0.37333 0.37333,-1.41866 -0.336,-1.26933 -1.792,0.37333 -9.18399,4.66666 -12.69332,4.66666 -3.28533,0 0.37333,-5.07732 2.09066,-5.71199 2.16533,-0.784 1.30667,1.97866 2.76267,1.49333 1.12,-0.41067 0.336,-1.94133 -0.224,-2.42666 -3.09867,-2.61333 -6.86933,2.50133 -7.504,4.81599 -0.784,3.06133 2.8,3.73333 5.18933,2.87467 3.136,-1.08267 9.40799,-3.65867 10.71466,-4.44267 z"
           id="path1263"
           style="stroke:none;fill:#999999" />
        <path
           d="m 418.2699,229.5498 c 2.16534,-3.62133 4.368,-7.20532 6.72,-10.63999 1.49333,-2.16533 3.248,-4.21866 5.15199,-6.04799 0.37334,-0.37333 0.74667,-0.82133 0.29867,-1.30667 -0.448,-0.48533 -0.896,-0.14933 -1.30667,0.18667 -1.94133,1.68 -3.84533,4.256 -5.30132,6.38399 -3.472,5.07733 -6.68267,10.41599 -10.15466,15.49332 -0.26134,0.41067 -0.52267,0.93334 -0.0373,1.30667 0.18667,0.14933 0.48534,0.14933 0.672,0.0747 0.26134,-0.112 0.70934,-0.59734 0.93334,-0.82134 1.30666,-1.12 2.61333,-2.46399 4.06933,-3.47199 1.75466,-1.19467 1.94133,-1.456 2.79999,0.37333 1.04534,2.38933 2.576,2.76266 5.22667,1.12 1.60533,-1.008 3.54666,-2.16533 4.21866,-2.688 0.56,-0.448 0.56,-1.30666 -0.14933,-1.19467 -0.48534,0.0747 -2.53867,1.49334 -4.06933,2.42667 -2.05334,1.232 -3.024,1.82933 -4.144,-0.82133 -0.52267,-1.232 -0.97067,-2.42667 -3.06133,-1.49334 -0.672,0.336 -1.232,0.74667 -1.86667,1.12 z"
           id="path1265"
           style="stroke:none;fill:#999999" />
        <path
           d="m 441.67784,228.3178 c -2.016,0.59734 -14.52266,9.14666 -11.05066,3.36 0.97067,-1.60533 2.20267,-2.912 3.92,-4.06933 0.448,-0.29866 0.85866,-0.896 0.48533,-1.41866 -1.344,-1.86667 -6.75733,5.97333 -7.09333,7.57866 -0.336,1.53066 1.008,1.904 3.21067,1.26933 3.69599,-1.08267 9.29599,-4.55466 10.49065,-5.33866 0.224,-0.14934 0.448,-0.29867 0.56,-0.52267 0.224,-0.48533 0.14934,-0.97066 -0.52266,-0.85867 z m -5.6,-4.36799 c 0.52267,0.0373 1.904,-0.41067 1.75467,-1.30667 -0.0373,-0.224 -0.29867,-0.41066 -0.48534,-0.48533 -1.30666,-0.48533 -2.91199,1.68 -1.26933,1.792 z"
           id="path1267"
           style="stroke:none;fill:#999999" />
        <path
           d="m 450.86178,228.5418 c -4.928,4.18133 -13.36532,9.37066 -8.25066,0.37334 2.98666,-5.22666 5.86133,-8.92266 8.73599,-13.21599 0.56,-0.82133 3.472,-3.09866 2.65067,-4.144 -0.70934,-0.97066 -2.016,0.93334 -2.38934,1.41867 -1.45599,1.86666 -7.05599,9.63199 -10.26665,15.30665 -6.90666,12.20799 6.27199,5.488 10.56532,1.30667 0.37333,-0.37334 0.448,-0.59734 0.18667,-1.04534 -0.29867,-0.48533 -0.784,-0.26133 -1.232,0 z"
           id="path1269"
           style="stroke:none;fill:#999999" />
        <path
           d="m 457.02172,230.40847 c -1.15733,1.94133 -7.01866,11.34932 -7.20533,12.69332 -0.112,0.74667 0.672,0.896 1.04533,0.52267 0.52267,-0.48533 0.41067,-0.784 0.85867,-1.568 5.152,-9.18399 10.82666,-18.36798 17.77065,-26.46931 1.38133,-1.64267 0.0373,-2.352 -1.38133,-0.52267 l -7.80266,10.41599 c -0.336,0.37334 -0.63467,0.784 -0.93333,1.232 -0.41067,-1.82933 -0.82134,-3.39733 -3.248,-2.53866 -6.49599,2.27733 -9.81866,14.48532 -2.688,8.77332 1.12,-0.89599 2.27733,-1.79199 3.584,-2.53866 z m -4.48,1.41867 c -1.60533,1.23199 -1.86666,0.85866 -1.12,-1.04534 0.48534,-1.19466 4.256,-6.83199 6.08533,-5.15199 0.48533,0.448 0.448,1.75466 -0.0747,2.24 -1.53067,1.38133 -3.21067,2.68799 -4.89067,3.95733 z"
           id="path1271"
           style="stroke:none;fill:#999999" />
        <path
           d="m 477.10703,234.10447 c 3.36,-5.22667 8.10132,-9.89333 11.16266,-15.34399 1.26933,-2.16533 3.21066,-6.19733 -1.456,-5.74933 -4.40533,0.448 -8.36266,3.024 -9.52,8.10133 -0.448,2.016 0.74667,3.88266 1.86667,3.136 0.52267,-0.29867 0.63467,-0.70934 0.112,-1.08267 -0.37333,-0.29867 -0.74667,-0.26133 -0.672,-1.19467 0.26133,-3.13599 3.136,-6.27199 6.45866,-7.27999 2.50133,-0.784 4.10666,-0.52267 2.576,2.38933 -3.21066,6.12266 -8.36266,11.83466 -12.84266,17.69599 -0.14933,0.224 -0.448,0.48533 -0.52266,0.70933 -0.26134,0.784 0.18666,1.344 1.008,0.93333 1.15733,-0.56 1.94133,-0.85866 3.24799,-1.008 2.65067,-0.26133 5.376,-0.26133 7.98933,-0.59733 1.15733,-0.18667 1.12,-1.568 -0.224,-1.41867 -0.74667,0.112 -1.49333,0.26134 -2.24,0.29867 -2.31466,0.14933 -4.62933,0.26133 -6.94399,0.41067 z"
           id="path1273"
           style="stroke:none;fill:#999999" />
      </g>
      <path
         style="fill:#2d2d2d;stroke-width:0.906968"
         id="path1394"
         d="m 190.25871,65.871716 c -6.22756,-1.051528 -12.4422,-2.307379 -18.69882,-3.024189 -7.40911,-0.84885 -10.69513,-0.876765 -18.27229,-1.245597 -14.373,-0.103956 -28.80443,2.165539 -42.61289,7.701209 -9.01466,3.613882 -13.369382,6.488325 -22.018907,11.429905 -3.460237,2.347681 -6.973538,4.558294 -10.380722,7.043044 -10.561124,7.701909 -21.978046,17.386312 -29.898139,29.774192 -1.51001,2.36182 -2.738635,5.02574 -4.107953,7.53861 -0.854768,2.62919 -1.930574,5.147 -2.564313,7.88756 -2.085391,9.0182 -1.523612,18.43499 1.242912,27.07919 2.983724,9.32284 5.841956,13.13458 10.507842,21.23414 3.140747,3.73268 6.069754,7.81664 9.422249,11.19804 3.906585,3.94026 8.043768,7.47885 12.294909,10.70634 5.88344,4.46673 11.910931,8.61041 18.068485,12.3457 10.026527,6.08226 22.913967,11.70079 33.496617,15.47542 5.84356,2.08428 11.78487,3.6342 17.6773,5.4513 20.10086,5.14663 40.57594,8.0638 61.05609,7.42627 10.2512,-0.31911 13.91198,-1.1516 23.95041,-2.64642 11.24421,-1.975 22.31093,-5.35138 33.26993,-9.21476 6.93698,-2.4455 12.06332,-4.28165 18.70044,-7.84351 2.74724,-1.47433 5.39029,-3.27959 8.08543,-4.91939 2.34415,-1.90098 4.76704,-3.63572 7.03245,-5.70296 5.3389,-4.87185 10.89605,-11.07626 13.87334,-19.00314 2.4508,-6.52511 2.12427,-8.97881 2.66847,-16.18441 -0.26493,-3.09747 -0.33519,-6.23661 -0.79478,-9.29243 -1.54742,-10.28867 -5.10333,-19.99949 -9.46533,-28.62294 -3.86987,-7.65052 -6.2514,-10.7214 -10.84161,-17.5486 -5.45626,-7.40168 -11.38606,-14.18109 -17.81929,-19.99752 -3.95052,-3.57175 -11.75635,-9.435804 -15.30279,-11.831114 -1.77011,-1.19556 -3.6567,-2.047895 -5.48505,-3.071842 -8.58697,-4.241252 -17.63253,-6.235848 -26.60659,-8.319543 -20.9953,-4.874925 1.78403,0.513231 -21.54785,-5.041003 -18.02064,-4.554209 -8.96775,-2.19434 -27.15798,-7.084498 0,0 3.23697,3.304064 3.23697,3.304064 v 0 c 18.28798,4.934328 9.16022,2.500903 27.38316,7.301029 3.93215,0.981929 7.8643,1.963856 11.79645,2.945784 3.36476,0.814828 6.73189,1.611983 10.09427,2.444483 9.04499,2.239476 18.16034,4.420692 26.82046,8.724705 1.81307,1.033278 3.61505,2.102679 5.43921,3.099835 0.34425,0.188178 0.7381,0.2096 1.06228,0.454117 8.73399,6.587723 16.57596,15.093143 23.67083,24.572793 4.6554,6.86138 6.91323,9.70844 10.83043,17.40379 4.33828,8.52258 7.88028,18.0874 9.41641,28.27842 0.45188,2.99784 0.5192,6.07804 0.77881,9.11706 -0.53472,7.10441 -0.21354,9.41195 -2.59159,15.8591 -2.89818,7.85725 -8.26001,14.08025 -13.51099,18.96006 -2.2279,2.07042 -4.61869,3.80264 -6.92804,5.70397 -2.66518,1.64464 -5.27785,3.45363 -7.99554,4.9339 -6.19331,3.3734 -12.04697,5.63106 -18.50186,7.95628 -10.9159,3.93221 -21.96972,7.21213 -33.18,9.20323 -9.99214,1.54651 -13.52915,2.37546 -23.73455,2.77368 -20.28673,0.79159 -40.58134,-1.9376 -60.50162,-7.01306 -5.89033,-1.8286 -11.83104,-3.38383 -17.67098,-5.48579 -12.7304,-4.58202 -21.53637,-8.80672 -33.626303,-15.71479 -9.133713,-5.21891 -15.41439,-9.58976 -23.485313,-17.73364 -3.267706,-3.29723 -6.115113,-7.29051 -9.172661,-10.93577 -4.57308,-7.97261 -7.344159,-11.67363 -10.266567,-20.82998 -2.710746,-8.4932 -3.254424,-17.69785 -1.273196,-26.57094 0.604065,-2.70533 1.630449,-5.20542 2.445669,-7.80812 1.323764,-2.51169 2.505736,-5.17081 3.971292,-7.53507 7.698393,-12.41916 18.965412,-22.283865 29.393505,-29.96119 3.387754,-2.494114 6.891939,-4.689329 10.337912,-7.033993 9.132922,-5.186437 12.531312,-7.533808 22.057632,-11.280364 13.85092,-5.447351 28.29221,-7.693571 42.69332,-7.413701 3.23921,0.194513 6.48146,0.312006 9.71762,0.58354 9.43189,0.791391 18.81123,2.478483 28.11346,4.69462 0,0 -4.59205,-4.695106 -4.59205,-4.695106 z" />
      <g
         aria-label="Scene"
         id="text1457"
         style="font-size:48px;font-family:'Winter Sunday';-inkscape-font-specification:'Winter Sunday';text-align:center;text-anchor:middle;fill:#2d2d2d;stroke-width:1.00157"
         transform="translate(8.2398029,5.7333776)">
        <path
           d="m 149.84155,13.82297 c -0.288,0.384 -1.296,1.44 -1.488,1.824 -0.144,0.336 -0.096,0.768 0.096,1.056 0.96,1.392 6.096,-3.888 0.816,-5.04 -7.248,-1.584 -22.416,3.6 -26.592,9.792 -1.104,1.632 -0.816,3.072 0.528,4.416 3.36,3.312 21.744,9.792 12.768,16.128 -6.528,4.608 -15.024,6.672 -22.608,8.928 -0.816,0.24 -0.864,0.192 -1.584,-0.24 -1.68,-1.008 -2.928,1.68 -0.96,2.208 0.576,0.144 1.776,0 3.216,-0.336 5.568,-1.296 15.264,-4.272 20.544,-7.488 1.632,-0.96 3.168,-2.112 4.464,-3.504 6.384,-6.768 -10.608,-13.536 -14.256,-16.704 -1.104,-0.96 -1.2,-1.776 -0.24,-2.88 4.128,-4.944 19.104,-11.04 25.296,-8.16 z"
           id="path1899" />
        <path
           d="m 164.19349,39.11897 c 0.768,-0.48 0.48,-1.824 -0.432,-1.632 -2.304,0.48 -11.808,6 -16.32,6 -4.224,0 0.48,-6.528 2.688,-7.344 2.784,-1.008 1.68,2.544 3.552,1.92 1.44,-0.528 0.432,-2.496 -0.288,-3.12 -3.984,-3.36 -8.832,3.216 -9.648,6.192 -1.008,3.936 3.6,4.8 6.672,3.696 4.032,-1.392 12.096,-4.704 13.776,-5.712 z"
           id="path1901" />
        <path
           d="m 164.48144,39.35897 c 0.24,0.048 0.432,0.096 0.672,0.144 3.264,0.96 8.832,-1.344 7.776,-4.368 -1.488,-4.272 -11.28,0.96 -10.752,6.144 0.624,6.096 17.808,0.432 21.264,-2.304 0.72,-0.624 0.48,-1.248 0.192,-1.488 -0.288,-0.24 -0.624,-0.144 -1.248,0.144 -3.456,1.584 -20.16,8.208 -17.904,1.728 z m 6.96,-3.6 c -1.536,1.536 -3.216,2.544 -5.472,2.256 1.152,-1.872 3.312,-2.832 5.472,-2.256 z"
           id="path1903" />
        <path
           d="m 203.5054,37.39097 c -2.304,0.288 -18.336,11.232 -14.208,4.32 1.248,-2.064 2.832,-3.744 5.04,-5.232 0.816,-0.576 1.104,-1.968 0.096,-2.64 -0.96,-0.528 -3.216,0.096 -7.584,2.208 -0.144,-0.432 -0.24,-1.392 -0.624,-1.632 -0.672,-0.432 -1.2,0.288 -1.584,0.768 -0.768,1.008 -7.248,9.072 -7.344,9.456 -0.336,1.248 0.768,1.776 1.44,1.056 2.736,-2.928 5.712,-6.816 10.56,-9.024 1.152,-0.528 1.968,-0.768 2.496,-0.912 -2.592,2.496 -4.896,6.384 -5.184,7.728 -0.432,1.968 0.48,3.072 3.312,2.256 4.752,-1.392 12.096,-5.616 13.632,-6.624 0.288,-0.192 0.576,-0.384 0.72,-0.672 0.288,-0.624 0.096,-1.2 -0.768,-1.056 z"
           id="path1905" />
        <path
           d="m 204.08138,39.35897 c 0.24,0.048 0.432,0.096 0.672,0.144 3.264,0.96 8.832,-1.344 7.776,-4.368 -1.488,-4.272 -11.28,0.96 -10.752,6.144 0.624,6.096 17.808,0.432 21.264,-2.304 0.72,-0.624 0.48,-1.248 0.192,-1.488 -0.288,-0.24 -0.624,-0.144 -1.248,0.144 -3.456,1.584 -20.16,8.208 -17.904,1.728 z m 6.96,-3.6 c -1.536,1.536 -3.216,2.544 -5.472,2.256 1.152,-1.872 3.312,-2.832 5.472,-2.256 z"
           id="path1907" />
      </g>
    </g>
  </g>
</svg>
