<?xml version="1.0" encoding="UTF-8" standalone="no"?>
<!-- Created with Inkscape (http://www.inkscape.org/) -->

<svg
   width="300"
   height="260"
   viewBox="0 0 300 260"
   version="1.1"
   id="svg5"
   inkscape:version="1.2.2 (b0a8486, 2022-12-01)"
   sodipodi:docname="scene_with_tree.svg"
   xmlns:inkscape="http://www.inkscape.org/namespaces/inkscape"
   xmlns:sodipodi="http://sodipodi.sourceforge.net/DTD/sodipodi-0.dtd"
   xmlns="http://www.w3.org/2000/svg"
   xmlns:svg="http://www.w3.org/2000/svg">
  <sodipodi:namedview
     id="namedview7"
     pagecolor="#ffffff"
     bordercolor="#000000"
     borderopacity="0.25"
     inkscape:showpageshadow="2"
     inkscape:pageopacity="0.0"
     inkscape:pagecheckerboard="false"
     inkscape:deskcolor="#d1d1d1"
     inkscape:document-units="mm"
     showgrid="false"
     inkscape:zoom="1.9704154"
     inkscape:cx="96.426367"
     inkscape:cy="85.007455"
     inkscape:window-width="1920"
     inkscape:window-height="1016"
     inkscape:window-x="0"
     inkscape:window-y="0"
     inkscape:window-maximized="1"
     inkscape:current-layer="g604"
     showguides="false" />
  <defs
     id="defs2" />
  <g
     inkscape:label="Layer 1"
     inkscape:groupmode="layer"
     id="layer1">
    <g
       id="g604"
       transform="translate(-35.708473,-1.8106099)">
      <path
         id="path1091"
         style="fill:#999999;stroke-width:0.61219;stroke:none"
         d="m 144.37173,178.37369 c 0.0386,0.5171 0.0839,1.03407 0.14325,1.54956 0.23976,2.21464 0.46553,4.44309 0.33069,6.67339 -0.1358,2.59278 -0.39602,5.17287 -0.64824,7.75618 -0.2326,2.17381 -0.5552,4.3359 -0.76642,6.51223 -0.0698,1.84657 -0.0449,3.67114 0.62078,5.42825 0.63033,1.71963 1.28118,3.46628 2.19421,5.05459 0.65046,0.84476 1.4725,1.53079 2.34345,2.14408 0.81088,0.52155 1.53437,1.12609 2.25988,1.76325 2.22758,1.30484 3.90136,3.03785 6.44418,2.80068 1.21615,-0.18678 2.4202,-0.46314 3.64948,-0.54915 l -3.72588,-2.65026 c -1.22121,0.14816 -2.42383,0.41525 -3.6447,0.57542 -0.13122,-0.0161 -0.27336,-0.0227 -0.41186,-0.031 -0.10699,-0.0802 -0.20518,-0.17086 -0.31636,-0.24592 -0.89091,-0.57467 -1.70212,-1.25724 -2.42104,-2.03425 -1.04613,-1.48233 -1.65055,-3.24189 -2.29093,-4.92924 -0.67589,-1.69943 -0.74151,-3.47068 -0.69599,-5.26947 0.18873,-2.17251 0.48808,-4.33308 0.71629,-6.50149 0.24676,-2.59078 0.50273,-5.17804 0.65659,-7.77647 0.1631,-2.24796 -0.0375,-4.4973 -0.28293,-6.73069 -0.14834,-1.17574 -0.22081,-2.35744 -0.28173,-3.53965 z m 7.25358,36.5807 c 0.16297,0.0909 0.32438,0.18438 0.48707,0.27577 -0.032,-0.0119 -0.0668,-0.0171 -0.0979,-0.0311 -0.13988,-0.063 -0.52315,-0.31945 -0.38918,-0.24473 z" />
      <path
         style="fill:#999999;stroke-width:0.61219;stroke:none"
         id="path754"
         d="m 130.71275,167.65972 c -1.22121,0.14816 -2.42386,0.41566 -3.64473,0.57583 -0.50276,-0.0617 -1.0828,-0.0192 -1.55772,-0.23303 -0.13988,-0.063 -0.52362,-0.3196 -0.38964,-0.24488 1.15897,0.64636 2.31008,1.30671 3.46512,1.96008 -0.78658,-0.54195 -1.45477,-1.22584 -2.2459,-1.75992 -0.89091,-0.57467 -1.70264,-1.25745 -2.42157,-2.03447 -1.04612,-1.48233 -1.65033,-3.24103 -2.29071,-4.92838 -0.67589,-1.69943 -0.74134,-3.47079 -0.69581,-5.26958 0.18872,-2.1725 0.48785,-4.33304 0.71606,-6.50145 0.24676,-2.59078 0.5027,-5.17836 0.65656,-7.7768 0.16309,-2.24796 -0.0369,-4.49756 -0.28235,-6.73096 -0.27392,-2.17095 -0.28682,-4.36143 -0.45227,-6.54008 -0.20945,-1.8804 -0.71229,-3.70372 -1.10648,-5.54907 -0.41187,-1.5566 -0.6253,-3.15652 -0.92149,-4.73722 -0.20247,-1.26924 -0.60563,-2.48835 -0.98161,-3.71271 -0.21351,-0.71677 -0.31854,-1.45736 -0.48847,-2.18463 0,0 -4.11649,-1.97767 -4.11649,-1.97767 v 0 c 0.17893,0.73766 0.30146,1.48234 0.49052,2.21748 0.37113,1.21798 0.82039,2.41505 1.02125,3.67887 0.31888,1.58399 0.52057,3.19472 0.93705,4.75629 0.40759,1.82874 0.88436,3.63937 1.13924,5.49917 0.19928,2.18249 0.21576,4.38042 0.46672,6.55995 0.23976,2.21464 0.4666,4.44332 0.33176,6.67363 -0.1358,2.59278 -0.39688,5.17223 -0.6491,7.75554 -0.2326,2.17382 -0.55513,4.33649 -0.76635,6.51282 -0.0699,1.84657 -0.0447,3.67059 0.62101,5.4277 0.63033,1.71964 1.28087,3.46705 2.19391,5.05536 0.65046,0.84476 1.47278,1.53069 2.34373,2.14398 0.81087,0.52155 1.53427,1.12605 2.25979,1.76322 2.22757,1.30484 3.90127,3.0377 6.4441,2.80053 1.21615,-0.18678 2.42089,-0.46393 3.65018,-0.54994 0,0 -3.72631,-2.64966 -3.72631,-2.64966 z" />
      <path
         style="fill:#999999;stroke-width:0.61219;stroke:none"
         id="path757"
         d="m 133.28903,144.63066 c -1.48757,0.40328 -3.02949,0.53905 -4.56187,0.64397 -1.58595,-0.0559 -3.16804,-0.18823 -4.75192,-0.284 -0.52641,-0.13087 -1.09737,-0.12857 -1.61846,-0.28317 -1.03836,-0.30806 -5.68407,-3.08002 2.44573,1.42202 -0.87318,-0.72157 -1.46655,-1.66032 -1.9671,-2.65999 -0.2511,-0.5082 -0.364,-1.05695 -0.45035,-1.61178 0,0 -4.09757,-2.01848 -4.09757,-2.01848 v 0 c 0.0701,0.59488 0.16006,1.1883 0.39782,1.74393 0.48087,1.05104 1.06111,2.0394 1.89826,2.85166 2.91723,1.76929 4.05851,3.02695 7.04472,3.24215 1.59112,0.087 3.18172,0.24239 4.77592,0.22694 1.56636,-0.13013 3.13661,-0.29803 4.66198,-0.69296 0,0 -3.77716,-2.58029 -3.77716,-2.58029 z" />
      <path
         style="fill:#999999;stroke-width:0.61219;stroke:none"
         id="path760"
         d="m 133.65457,124.13535 c -1.40229,-0.24416 -2.82155,-0.35711 -4.24085,-0.44245 -1.09771,-0.0647 -2.19734,-0.0668 -3.29649,-0.0699 -0.68949,-0.0419 -1.45901,-0.002 -2.10977,-0.26241 -0.68163,-0.20239 -1.327,-0.48498 -2.02214,-0.64728 -0.36089,-0.0911 -0.73689,-0.0658 -1.0836,-0.21743 -0.99242,-0.43405 -6.30532,-3.62056 3.01276,1.71655 -0.75377,-0.52378 -1.45478,-1.13031 -2.12368,-1.75871 -0.63243,-0.59249 -1.0021,-1.35686 -1.34873,-2.13452 -0.29196,-0.66555 -0.36518,-1.38709 -0.42338,-2.10294 0,0 -4.07945,-2.04215 -4.07945,-2.04215 v 0 c 0.0463,0.75315 0.0948,1.51932 0.35297,2.23533 0.3282,0.82131 0.68934,1.63563 1.28279,2.30478 0.65301,0.65786 1.37059,1.23965 2.07544,1.84109 2.42914,1.41285 3.58542,2.51106 5.96306,2.9414 0.68077,0.20537 1.33779,0.48202 2.02901,0.65463 0.71386,0.11337 1.43666,0.16991 2.15987,0.15078 1.08777,0.004 2.17596,0.016 3.26225,0.0779 1.42021,0.0905 2.84074,0.22005 4.23621,0.51024 0,0 -3.64627,-2.75497 -3.64627,-2.75497 z" />
      <path
         style="fill:#999999;stroke-width:0.61219;stroke:none"
         id="path1093"
         d="m 160.19334,192.51861 c -1.48757,0.40327 -3.0295,0.53905 -4.56188,0.64396 -1.58594,-0.0559 -3.16803,-0.18823 -4.75191,-0.28399 -0.52641,-0.13088 -1.09738,-0.12858 -1.61846,-0.28317 -1.03837,-0.30807 -5.68408,-3.08002 2.44572,1.42201 -0.87318,-0.72157 -1.46655,-1.66031 -1.96709,-2.65999 -0.2511,-0.5082 -0.364,-1.05694 -0.45036,-1.61177 0,0 -4.09756,-2.01848 -4.09756,-2.01848 v 0 c 0.0701,0.59487 0.16005,1.1883 0.39782,1.74392 0.48086,1.05104 1.0611,2.0394 1.89826,2.85167 2.91722,1.76928 4.05851,3.02694 7.04471,3.24215 1.59112,0.087 3.18172,0.24239 4.77592,0.22693 1.56637,-0.13013 3.13661,-0.29803 4.66199,-0.69295 0,0 -3.77716,-2.58029 -3.77716,-2.58029 z" />
      <path
         style="fill:#2d2d2d;stroke-width:0.906968"
         id="path1394"
         d="m 190.25871,65.871716 c -6.22756,-1.051528 -12.4422,-2.307379 -18.69882,-3.024189 -7.40911,-0.84885 -10.69513,-0.876765 -18.27229,-1.245597 -14.373,-0.103956 -28.80443,2.165539 -42.61289,7.701209 -9.01466,3.613882 -13.369382,6.488325 -22.018907,11.429905 -3.460237,2.347681 -6.973538,4.558294 -10.380722,7.043044 -10.561124,7.701909 -21.978046,17.386312 -29.898139,29.774192 -1.51001,2.36182 -2.738635,5.02574 -4.107953,7.53861 -0.854768,2.62919 -1.930574,5.147 -2.564313,7.88756 -2.085391,9.0182 -1.523612,18.43499 1.242912,27.07919 2.983724,9.32284 5.841956,13.13458 10.507842,21.23414 3.140747,3.73268 6.069754,7.81664 9.422249,11.19804 3.906585,3.94026 8.043768,7.47885 12.294909,10.70634 5.88344,4.46673 11.910931,8.61041 18.068485,12.3457 10.026527,6.08226 22.913967,11.70079 33.496617,15.47542 5.84356,2.08428 11.78487,3.6342 17.6773,5.4513 20.10086,5.14663 40.57594,8.0638 61.05609,7.42627 10.2512,-0.31911 13.91198,-1.1516 23.95041,-2.64642 11.24421,-1.975 22.31093,-5.35138 33.26993,-9.21476 6.93698,-2.4455 12.06332,-4.28165 18.70044,-7.84351 2.74724,-1.47433 5.39029,-3.27959 8.08543,-4.91939 2.34415,-1.90098 4.76704,-3.63572 7.03245,-5.70296 5.3389,-4.87185 10.89605,-11.07626 13.87334,-19.00314 2.4508,-6.52511 2.12427,-8.97881 2.66847,-16.18441 -0.26493,-3.09747 -0.33519,-6.23661 -0.79478,-9.29243 -1.54742,-10.28867 -5.10333,-19.99949 -9.46533,-28.62294 -3.86987,-7.65052 -6.2514,-10.7214 -10.84161,-17.5486 -5.45626,-7.40168 -11.38606,-14.18109 -17.81929,-19.99752 -3.95052,-3.57175 -11.75635,-9.435804 -15.30279,-11.831114 -1.77011,-1.19556 -3.6567,-2.047895 -5.48505,-3.071842 -8.58697,-4.241252 -17.63253,-6.235848 -26.60659,-8.319543 -20.9953,-4.874925 1.78403,0.513231 -21.54785,-5.041003 -18.02064,-4.554209 -8.96775,-2.19434 -27.15798,-7.084498 0,0 3.23697,3.304064 3.23697,3.304064 v 0 c 18.28798,4.934328 9.16022,2.500903 27.38316,7.301029 3.93215,0.981929 7.8643,1.963856 11.79645,2.945784 3.36476,0.814828 6.73189,1.611983 10.09427,2.444483 9.04499,2.239476 18.16034,4.420692 26.82046,8.724705 1.81307,1.033278 3.61505,2.102679 5.43921,3.099835 0.34425,0.188178 0.7381,0.2096 1.06228,0.454117 8.73399,6.587723 16.57596,15.093143 23.67083,24.572793 4.6554,6.86138 6.91323,9.70844 10.83043,17.40379 4.33828,8.52258 7.88028,18.0874 9.41641,28.27842 0.45188,2.99784 0.5192,6.07804 0.77881,9.11706 -0.53472,7.10441 -0.21354,9.41195 -2.59159,15.8591 -2.89818,7.85725 -8.26001,14.08025 -13.51099,18.96006 -2.2279,2.07042 -4.61869,3.80264 -6.92804,5.70397 -2.66518,1.64464 -5.27785,3.45363 -7.99554,4.9339 -6.19331,3.3734 -12.04697,5.63106 -18.50186,7.95628 -10.9159,3.93221 -21.96972,7.21213 -33.18,9.20323 -9.99214,1.54651 -13.52915,2.37546 -23.73455,2.77368 -20.28673,0.79159 -40.58134,-1.9376 -60.50162,-7.01306 -5.89033,-1.8286 -11.83104,-3.38383 -17.67098,-5.48579 -12.7304,-4.58202 -21.53637,-8.80672 -33.626303,-15.71479 -9.133713,-5.21891 -15.41439,-9.58976 -23.485313,-17.73364 -3.267706,-3.29723 -6.115113,-7.29051 -9.172661,-10.93577 -4.57308,-7.97261 -7.344159,-11.67363 -10.266567,-20.82998 -2.710746,-8.4932 -3.254424,-17.69785 -1.273196,-26.57094 0.604065,-2.70533 1.630449,-5.20542 2.445669,-7.80812 1.323764,-2.51169 2.505736,-5.17081 3.971292,-7.53507 7.698393,-12.41916 18.965412,-22.283865 29.393505,-29.96119 3.387754,-2.494114 6.891939,-4.689329 10.337912,-7.033993 9.132922,-5.186437 12.531312,-7.533808 22.057632,-11.280364 13.85092,-5.447351 28.29221,-7.693571 42.69332,-7.413701 3.23921,0.194513 6.48146,0.312006 9.71762,0.58354 9.43189,0.791391 18.81123,2.478483 28.11346,4.69462 0,0 -4.59205,-4.695106 -4.59205,-4.695106 z" />
      <g
         aria-label="Scene"
         id="text1457"
         style="font-size:48px;font-family:'Winter Sunday';-inkscape-font-specification:'Winter Sunday';text-align:center;text-anchor:middle;fill:#2d2d2d;stroke-width:1.00157"
         transform="translate(8.2398029,5.7333776)">
        <path
           d="m 149.84155,13.82297 c -0.288,0.384 -1.296,1.44 -1.488,1.824 -0.144,0.336 -0.096,0.768 0.096,1.056 0.96,1.392 6.096,-3.888 0.816,-5.04 -7.248,-1.584 -22.416,3.6 -26.592,9.792 -1.104,1.632 -0.816,3.072 0.528,4.416 3.36,3.312 21.744,9.792 12.768,16.128 -6.528,4.608 -15.024,6.672 -22.608,8.928 -0.816,0.24 -0.864,0.192 -1.584,-0.24 -1.68,-1.008 -2.928,1.68 -0.96,2.208 0.576,0.144 1.776,0 3.216,-0.336 5.568,-1.296 15.264,-4.272 20.544,-7.488 1.632,-0.96 3.168,-2.112 4.464,-3.504 6.384,-6.768 -10.608,-13.536 -14.256,-16.704 -1.104,-0.96 -1.2,-1.776 -0.24,-2.88 4.128,-4.944 19.104,-11.04 25.296,-8.16 z"
           id="path1899" />
        <path
           d="m 164.19349,39.11897 c 0.768,-0.48 0.48,-1.824 -0.432,-1.632 -2.304,0.48 -11.808,6 -16.32,6 -4.224,0 0.48,-6.528 2.688,-7.344 2.784,-1.008 1.68,2.544 3.552,1.92 1.44,-0.528 0.432,-2.496 -0.288,-3.12 -3.984,-3.36 -8.832,3.216 -9.648,6.192 -1.008,3.936 3.6,4.8 6.672,3.696 4.032,-1.392 12.096,-4.704 13.776,-5.712 z"
           id="path1901" />
        <path
           d="m 164.48144,39.35897 c 0.24,0.048 0.432,0.096 0.672,0.144 3.264,0.96 8.832,-1.344 7.776,-4.368 -1.488,-4.272 -11.28,0.96 -10.752,6.144 0.624,6.096 17.808,0.432 21.264,-2.304 0.72,-0.624 0.48,-1.248 0.192,-1.488 -0.288,-0.24 -0.624,-0.144 -1.248,0.144 -3.456,1.584 -20.16,8.208 -17.904,1.728 z m 6.96,-3.6 c -1.536,1.536 -3.216,2.544 -5.472,2.256 1.152,-1.872 3.312,-2.832 5.472,-2.256 z"
           id="path1903" />
        <path
           d="m 203.5054,37.39097 c -2.304,0.288 -18.336,11.232 -14.208,4.32 1.248,-2.064 2.832,-3.744 5.04,-5.232 0.816,-0.576 1.104,-1.968 0.096,-2.64 -0.96,-0.528 -3.216,0.096 -7.584,2.208 -0.144,-0.432 -0.24,-1.392 -0.624,-1.632 -0.672,-0.432 -1.2,0.288 -1.584,0.768 -0.768,1.008 -7.248,9.072 -7.344,9.456 -0.336,1.248 0.768,1.776 1.44,1.056 2.736,-2.928 5.712,-6.816 10.56,-9.024 1.152,-0.528 1.968,-0.768 2.496,-0.912 -2.592,2.496 -4.896,6.384 -5.184,7.728 -0.432,1.968 0.48,3.072 3.312,2.256 4.752,-1.392 12.096,-5.616 13.632,-6.624 0.288,-0.192 0.576,-0.384 0.72,-0.672 0.288,-0.624 0.096,-1.2 -0.768,-1.056 z"
           id="path1905" />
        <path
           d="m 204.08138,39.35897 c 0.24,0.048 0.432,0.096 0.672,0.144 3.264,0.96 8.832,-1.344 7.776,-4.368 -1.488,-4.272 -11.28,0.96 -10.752,6.144 0.624,6.096 17.808,0.432 21.264,-2.304 0.72,-0.624 0.48,-1.248 0.192,-1.488 -0.288,-0.24 -0.624,-0.144 -1.248,0.144 -3.456,1.584 -20.16,8.208 -17.904,1.728 z m 6.96,-3.6 c -1.536,1.536 -3.216,2.544 -5.472,2.256 1.152,-1.872 3.312,-2.832 5.472,-2.256 z"
           id="path1907" />
      </g>
      <g
         id="g505"
         transform="translate(51.42277,24.798467)">
        <path
           d="m 115.05463,90.479607 c 0.264,-0.312 0.384,-0.432 0.024,-0.792 -0.264,-0.216 -0.528,-0.12 -0.864,0.312 -0.192,0.264 -0.336,0.552 -0.504,0.84 -2.088,3.552 -4.32,7.08 -6.528,10.560003 -1.8,2.976 -2.88,2.928 -2.952,-0.888 -0.096,-4.800003 1.464,-10.632003 1.8,-14.688003 0.048,-0.648 -0.048,-1.32 -0.744,-1.632 -1.224,-0.6 -3.288,1.416 -4.056,2.184 -3.600002,3.6 -6.336002,7.656 -8.328002,12.168 -0.624,1.464003 -1.248,3.144003 -1.632,4.680003 -0.072,0.264 -0.12,0.624 0,0.888 0.24,0.528 0.768,0.384 0.96,-0.096 0.264,-0.672 0.24,-1.872 0.504,-2.616 1.872,-5.232003 4.848,-9.936003 8.760002,-14.088003 1.848,-1.992 4.032,-3.576 3.48,0.192 -0.624,4.344 -1.752,8.472 -1.704,12.792003 0,0.96 -0.168,3.984 1.2,4.368 1.512,0.408 2.76,-1.872 3.576,-2.976 2.304,-3.312003 4.152,-6.912003 6.336,-10.272003 0.192,-0.312 0.432,-0.624 0.672,-0.936 z"
           id="path497"
           style="font-size:24px;font-family:'Winter Sunday';-inkscape-font-specification:'Winter Sunday';text-align:center;text-anchor:middle;fill:#999999;stroke-width:1.00157" />
        <path
           d="m 117.23862,99.431607 c 1.152,0.288 3.072,0.144 3.96,-0.048 0.264,-0.048 0.672,-0.24 0.528,-0.648 -0.072,-0.192 -0.216,-0.312 -0.624,-0.192 -0.552,0.144 -2.904,0.312 -3.264,0.072 0.216,-0.36 0.624,-0.888 0.648,-1.32 0.096,-1.176 -1.344,-1.896 -2.856,-0.984 -0.696,0.408 -1.416,1.152 -2.016,1.968 -0.96,1.368 -1.56,2.976003 -1.056,3.864003 0.192,0.36 0.696,0.432 1.32,0.168 1.248,-0.552 1.944,-1.488 3.36,-2.880003 z m -2.64,-0.864 c 0.504,0.696 1.248,0.576 1.344,0.792 0.144,0.312 -0.936,1.200003 -1.152,1.368003 -1.008,0.792 -2.04,0.984 -1.2,-0.672 0.216,-0.480003 0.6,-0.984003 1.008,-1.488003 z m 1.128,-1.152 c 0.576,-0.504 2.088,-0.984 1.608,0.48 -0.336,1.032 -2.448,0.408 -1.608,-0.48 z"
           id="path499"
           style="font-size:24px;font-family:'Winter Sunday';-inkscape-font-specification:'Winter Sunday';text-align:center;text-anchor:middle;fill:#999999;stroke-width:1.00157" />
        <path
           d="m 124.9426,99.911607 c -0.744,1.248003 -4.512,7.296003 -4.632,8.160003 -0.072,0.48 0.432,0.576 0.672,0.336 0.336,-0.312 0.264,-0.504 0.552,-1.008 3.312,-5.904 6.96,-11.808003 11.424,-17.016003 0.888,-1.056 0.024,-1.512 -0.888,-0.336 l -5.016,6.696 c -0.216,0.24 -0.408,0.504 -0.6,0.792 -0.264,-1.176 -0.528,-2.184 -2.088,-1.632 -4.176,1.464 -6.312,9.312003 -1.728,5.640003 0.72,-0.576 1.464,-1.152 2.304,-1.632003 z m -2.88,0.912003 c -1.032,0.792 -1.2,0.552 -0.72,-0.672 0.312,-0.768003 2.736,-4.392003 3.912,-3.312003 0.312,0.288 0.288,1.128 -0.048,1.44 -0.984,0.888 -2.064,1.728003 -3.144,2.544003 z"
           id="path501"
           style="font-size:24px;font-family:'Winter Sunday';-inkscape-font-specification:'Winter Sunday';text-align:center;text-anchor:middle;fill:#999999;stroke-width:1.00157" />
        <path
           d="m 129.9826,99.551607 c 0.12,0.024 0.216,0.048 0.336,0.072 1.632,0.480003 4.416,-0.672 3.888,-2.184 -0.744,-2.136 -5.64,0.48 -5.376,3.072003 0.312,3.048 8.904,0.216 10.632,-1.152003 0.36,-0.312 0.24,-0.624 0.096,-0.744 -0.144,-0.12 -0.312,-0.072 -0.624,0.072 -1.728,0.792 -10.08,4.104003 -8.952,0.864 z m 3.48,-1.8 c -0.768,0.768 -1.608,1.272 -2.736,1.128 0.576,-0.936 1.656,-1.416 2.736,-1.128 z"
           id="path503"
           style="font-size:24px;font-family:'Winter Sunday';-inkscape-font-specification:'Winter Sunday';text-align:center;text-anchor:middle;fill:#999999;stroke-width:1.00157" />
      </g>
      <g
         id="g515"
         transform="translate(49.331285,48.421341)">
        <path
           d="m 115.05463,90.479607 c 0.264,-0.312 0.384,-0.432 0.024,-0.792 -0.264,-0.216 -0.528,-0.12 -0.864,0.312 -0.192,0.264 -0.336,0.552 -0.504,0.84 -2.088,3.552 -4.32,7.08 -6.528,10.560003 -1.8,2.976 -2.88,2.928 -2.952,-0.888 -0.096,-4.800003 1.464,-10.632003 1.8,-14.688003 0.048,-0.648 -0.048,-1.32 -0.744,-1.632 -1.224,-0.6 -3.288,1.416 -4.056,2.184 -3.600002,3.6 -6.336002,7.656 -8.328002,12.168 -0.624,1.464003 -1.248,3.144003 -1.632,4.680003 -0.072,0.264 -0.12,0.624 0,0.888 0.24,0.528 0.768,0.384 0.96,-0.096 0.264,-0.672 0.24,-1.872 0.504,-2.616 1.872,-5.232003 4.848,-9.936003 8.760002,-14.088003 1.848,-1.992 4.032,-3.576 3.48,0.192 -0.624,4.344 -1.752,8.472 -1.704,12.792003 0,0.96 -0.168,3.984 1.2,4.368 1.512,0.408 2.76,-1.872 3.576,-2.976 2.304,-3.312003 4.152,-6.912003 6.336,-10.272003 0.192,-0.312 0.432,-0.624 0.672,-0.936 z"
           id="path507"
           style="font-size:24px;font-family:'Winter Sunday';-inkscape-font-specification:'Winter Sunday';text-align:center;text-anchor:middle;fill:#999999;stroke-width:1.00157" />
        <path
           d="m 117.23862,99.431607 c 1.152,0.288 3.072,0.144 3.96,-0.048 0.264,-0.048 0.672,-0.24 0.528,-0.648 -0.072,-0.192 -0.216,-0.312 -0.624,-0.192 -0.552,0.144 -2.904,0.312 -3.264,0.072 0.216,-0.36 0.624,-0.888 0.648,-1.32 0.096,-1.176 -1.344,-1.896 -2.856,-0.984 -0.696,0.408 -1.416,1.152 -2.016,1.968 -0.96,1.368 -1.56,2.976003 -1.056,3.864003 0.192,0.36 0.696,0.432 1.32,0.168 1.248,-0.552 1.944,-1.488 3.36,-2.880003 z m -2.64,-0.864 c 0.504,0.696 1.248,0.576 1.344,0.792 0.144,0.312 -0.936,1.200003 -1.152,1.368003 -1.008,0.792 -2.04,0.984 -1.2,-0.672 0.216,-0.480003 0.6,-0.984003 1.008,-1.488003 z m 1.128,-1.152 c 0.576,-0.504 2.088,-0.984 1.608,0.48 -0.336,1.032 -2.448,0.408 -1.608,-0.48 z"
           id="path509"
           style="font-size:24px;font-family:'Winter Sunday';-inkscape-font-specification:'Winter Sunday';text-align:center;text-anchor:middle;fill:#999999;stroke-width:1.00157" />
        <path
           d="m 124.9426,99.911607 c -0.744,1.248003 -4.512,7.296003 -4.632,8.160003 -0.072,0.48 0.432,0.576 0.672,0.336 0.336,-0.312 0.264,-0.504 0.552,-1.008 3.312,-5.904 6.96,-11.808003 11.424,-17.016003 0.888,-1.056 0.024,-1.512 -0.888,-0.336 l -5.016,6.696 c -0.216,0.24 -0.408,0.504 -0.6,0.792 -0.264,-1.176 -0.528,-2.184 -2.088,-1.632 -4.176,1.464 -6.312,9.312003 -1.728,5.640003 0.72,-0.576 1.464,-1.152 2.304,-1.632003 z m -2.88,0.912003 c -1.032,0.792 -1.2,0.552 -0.72,-0.672 0.312,-0.768003 2.736,-4.392003 3.912,-3.312003 0.312,0.288 0.288,1.128 -0.048,1.44 -0.984,0.888 -2.064,1.728003 -3.144,2.544003 z"
           id="path511"
           style="font-size:24px;font-family:'Winter Sunday';-inkscape-font-specification:'Winter Sunday';text-align:center;text-anchor:middle;fill:#999999;stroke-width:1.00157" />
        <path
           d="m 129.9826,99.551607 c 0.12,0.024 0.216,0.048 0.336,0.072 1.632,0.480003 4.416,-0.672 3.888,-2.184 -0.744,-2.136 -5.64,0.48 -5.376,3.072003 0.312,3.048 8.904,0.216 10.632,-1.152003 0.36,-0.312 0.24,-0.624 0.096,-0.744 -0.144,-0.12 -0.312,-0.072 -0.624,0.072 -1.728,0.792 -10.08,4.104003 -8.952,0.864 z m 3.48,-1.8 c -0.768,0.768 -1.608,1.272 -2.736,1.128 0.576,-0.936 1.656,-1.416 2.736,-1.128 z"
           id="path513"
           style="font-size:24px;font-family:'Winter Sunday';-inkscape-font-specification:'Winter Sunday';text-align:center;text-anchor:middle;fill:#999999;stroke-width:1.00157" />
      </g>
      <g
         id="g525"
         transform="translate(47.699729,71.278989)">
        <path
           d="m 115.05463,90.479607 c 0.264,-0.312 0.384,-0.432 0.024,-0.792 -0.264,-0.216 -0.528,-0.12 -0.864,0.312 -0.192,0.264 -0.336,0.552 -0.504,0.84 -2.088,3.552 -4.32,7.08 -6.528,10.560003 -1.8,2.976 -2.88,2.928 -2.952,-0.888 -0.096,-4.800003 1.464,-10.632003 1.8,-14.688003 0.048,-0.648 -0.048,-1.32 -0.744,-1.632 -1.224,-0.6 -3.288,1.416 -4.056,2.184 -3.600002,3.6 -6.336002,7.656 -8.328002,12.168 -0.624,1.464003 -1.248,3.144003 -1.632,4.680003 -0.072,0.264 -0.12,0.624 0,0.888 0.24,0.528 0.768,0.384 0.96,-0.096 0.264,-0.672 0.24,-1.872 0.504,-2.616 1.872,-5.232003 4.848,-9.936003 8.760002,-14.088003 1.848,-1.992 4.032,-3.576 3.48,0.192 -0.624,4.344 -1.752,8.472 -1.704,12.792003 0,0.96 -0.168,3.984 1.2,4.368 1.512,0.408 2.76,-1.872 3.576,-2.976 2.304,-3.312003 4.152,-6.912003 6.336,-10.272003 0.192,-0.312 0.432,-0.624 0.672,-0.936 z"
           id="path517"
           style="font-size:24px;font-family:'Winter Sunday';-inkscape-font-specification:'Winter Sunday';text-align:center;text-anchor:middle;fill:#999999;stroke-width:1.00157" />
        <path
           d="m 117.23862,99.431607 c 1.152,0.288 3.072,0.144 3.96,-0.048 0.264,-0.048 0.672,-0.24 0.528,-0.648 -0.072,-0.192 -0.216,-0.312 -0.624,-0.192 -0.552,0.144 -2.904,0.312 -3.264,0.072 0.216,-0.36 0.624,-0.888 0.648,-1.32 0.096,-1.176 -1.344,-1.896 -2.856,-0.984 -0.696,0.408 -1.416,1.152 -2.016,1.968 -0.96,1.368 -1.56,2.976003 -1.056,3.864003 0.192,0.36 0.696,0.432 1.32,0.168 1.248,-0.552 1.944,-1.488 3.36,-2.880003 z m -2.64,-0.864 c 0.504,0.696 1.248,0.576 1.344,0.792 0.144,0.312 -0.936,1.200003 -1.152,1.368003 -1.008,0.792 -2.04,0.984 -1.2,-0.672 0.216,-0.480003 0.6,-0.984003 1.008,-1.488003 z m 1.128,-1.152 c 0.576,-0.504 2.088,-0.984 1.608,0.48 -0.336,1.032 -2.448,0.408 -1.608,-0.48 z"
           id="path519"
           style="font-size:24px;font-family:'Winter Sunday';-inkscape-font-specification:'Winter Sunday';text-align:center;text-anchor:middle;fill:#999999;stroke-width:1.00157" />
        <path
           d="m 124.9426,99.911607 c -0.744,1.248003 -4.512,7.296003 -4.632,8.160003 -0.072,0.48 0.432,0.576 0.672,0.336 0.336,-0.312 0.264,-0.504 0.552,-1.008 3.312,-5.904 6.96,-11.808003 11.424,-17.016003 0.888,-1.056 0.024,-1.512 -0.888,-0.336 l -5.016,6.696 c -0.216,0.24 -0.408,0.504 -0.6,0.792 -0.264,-1.176 -0.528,-2.184 -2.088,-1.632 -4.176,1.464 -6.312,9.312003 -1.728,5.640003 0.72,-0.576 1.464,-1.152 2.304,-1.632003 z m -2.88,0.912003 c -1.032,0.792 -1.2,0.552 -0.72,-0.672 0.312,-0.768003 2.736,-4.392003 3.912,-3.312003 0.312,0.288 0.288,1.128 -0.048,1.44 -0.984,0.888 -2.064,1.728003 -3.144,2.544003 z"
           id="path521"
           style="font-size:24px;font-family:'Winter Sunday';-inkscape-font-specification:'Winter Sunday';text-align:center;text-anchor:middle;fill:#999999;stroke-width:1.00157" />
        <path
           d="m 129.9826,99.551607 c 0.12,0.024 0.216,0.048 0.336,0.072 1.632,0.480003 4.416,-0.672 3.888,-2.184 -0.744,-2.136 -5.64,0.48 -5.376,3.072003 0.312,3.048 8.904,0.216 10.632,-1.152003 0.36,-0.312 0.24,-0.624 0.096,-0.744 -0.144,-0.12 -0.312,-0.072 -0.624,0.072 -1.728,0.792 -10.08,4.104003 -8.952,0.864 z m 3.48,-1.8 c -0.768,0.768 -1.608,1.272 -2.736,1.128 0.576,-0.936 1.656,-1.416 2.736,-1.128 z"
           id="path523"
           style="font-size:24px;font-family:'Winter Sunday';-inkscape-font-specification:'Winter Sunday';text-align:center;text-anchor:middle;fill:#999999;stroke-width:1.00157" />
      </g>
      <g
         id="g535"
         transform="translate(76.804077,94.935565)">
        <path
           d="m 115.05463,90.479607 c 0.264,-0.312 0.384,-0.432 0.024,-0.792 -0.264,-0.216 -0.528,-0.12 -0.864,0.312 -0.192,0.264 -0.336,0.552 -0.504,0.84 -2.088,3.552 -4.32,7.08 -6.528,10.560003 -1.8,2.976 -2.88,2.928 -2.952,-0.888 -0.096,-4.800003 1.464,-10.632003 1.8,-14.688003 0.048,-0.648 -0.048,-1.32 -0.744,-1.632 -1.224,-0.6 -3.288,1.416 -4.056,2.184 -3.600002,3.6 -6.336002,7.656 -8.328002,12.168 -0.624,1.464003 -1.248,3.144003 -1.632,4.680003 -0.072,0.264 -0.12,0.624 0,0.888 0.24,0.528 0.768,0.384 0.96,-0.096 0.264,-0.672 0.24,-1.872 0.504,-2.616 1.872,-5.232003 4.848,-9.936003 8.760002,-14.088003 1.848,-1.992 4.032,-3.576 3.48,0.192 -0.624,4.344 -1.752,8.472 -1.704,12.792003 0,0.96 -0.168,3.984 1.2,4.368 1.512,0.408 2.76,-1.872 3.576,-2.976 2.304,-3.312003 4.152,-6.912003 6.336,-10.272003 0.192,-0.312 0.432,-0.624 0.672,-0.936 z"
           id="path527"
           style="font-size:24px;font-family:'Winter Sunday';-inkscape-font-specification:'Winter Sunday';text-align:center;text-anchor:middle;fill:#999999;stroke-width:1.00157" />
        <path
           d="m 117.23862,99.431607 c 1.152,0.288 3.072,0.144 3.96,-0.048 0.264,-0.048 0.672,-0.24 0.528,-0.648 -0.072,-0.192 -0.216,-0.312 -0.624,-0.192 -0.552,0.144 -2.904,0.312 -3.264,0.072 0.216,-0.36 0.624,-0.888 0.648,-1.32 0.096,-1.176 -1.344,-1.896 -2.856,-0.984 -0.696,0.408 -1.416,1.152 -2.016,1.968 -0.96,1.368 -1.56,2.976003 -1.056,3.864003 0.192,0.36 0.696,0.432 1.32,0.168 1.248,-0.552 1.944,-1.488 3.36,-2.880003 z m -2.64,-0.864 c 0.504,0.696 1.248,0.576 1.344,0.792 0.144,0.312 -0.936,1.200003 -1.152,1.368003 -1.008,0.792 -2.04,0.984 -1.2,-0.672 0.216,-0.480003 0.6,-0.984003 1.008,-1.488003 z m 1.128,-1.152 c 0.576,-0.504 2.088,-0.984 1.608,0.48 -0.336,1.032 -2.448,0.408 -1.608,-0.48 z"
           id="path529"
           style="font-size:24px;font-family:'Winter Sunday';-inkscape-font-specification:'Winter Sunday';text-align:center;text-anchor:middle;fill:#999999;stroke-width:1.00157" />
        <path
           d="m 124.9426,99.911607 c -0.744,1.248003 -4.512,7.296003 -4.632,8.160003 -0.072,0.48 0.432,0.576 0.672,0.336 0.336,-0.312 0.264,-0.504 0.552,-1.008 3.312,-5.904 6.96,-11.808003 11.424,-17.016003 0.888,-1.056 0.024,-1.512 -0.888,-0.336 l -5.016,6.696 c -0.216,0.24 -0.408,0.504 -0.6,0.792 -0.264,-1.176 -0.528,-2.184 -2.088,-1.632 -4.176,1.464 -6.312,9.312003 -1.728,5.640003 0.72,-0.576 1.464,-1.152 2.304,-1.632003 z m -2.88,0.912003 c -1.032,0.792 -1.2,0.552 -0.72,-0.672 0.312,-0.768003 2.736,-4.392003 3.912,-3.312003 0.312,0.288 0.288,1.128 -0.048,1.44 -0.984,0.888 -2.064,1.728003 -3.144,2.544003 z"
           id="path531"
           style="font-size:24px;font-family:'Winter Sunday';-inkscape-font-specification:'Winter Sunday';text-align:center;text-anchor:middle;fill:#999999;stroke-width:1.00157" />
        <path
           d="m 129.9826,99.551607 c 0.12,0.024 0.216,0.048 0.336,0.072 1.632,0.480003 4.416,-0.672 3.888,-2.184 -0.744,-2.136 -5.64,0.48 -5.376,3.072003 0.312,3.048 8.904,0.216 10.632,-1.152003 0.36,-0.312 0.24,-0.624 0.096,-0.744 -0.144,-0.12 -0.312,-0.072 -0.624,0.072 -1.728,0.792 -10.08,4.104003 -8.952,0.864 z m 3.48,-1.8 c -0.768,0.768 -1.608,1.272 -2.736,1.128 0.576,-0.936 1.656,-1.416 2.736,-1.128 z"
           id="path533"
           style="font-size:24px;font-family:'Winter Sunday';-inkscape-font-specification:'Winter Sunday';text-align:center;text-anchor:middle;fill:#999999;stroke-width:1.00157" />
      </g>
      <g
         id="g545"
         transform="translate(74.409277,118.78444)">
        <path
           d="m 115.05463,90.479607 c 0.264,-0.312 0.384,-0.432 0.024,-0.792 -0.264,-0.216 -0.528,-0.12 -0.864,0.312 -0.192,0.264 -0.336,0.552 -0.504,0.84 -2.088,3.552 -4.32,7.08 -6.528,10.560003 -1.8,2.976 -2.88,2.928 -2.952,-0.888 -0.096,-4.800003 1.464,-10.632003 1.8,-14.688003 0.048,-0.648 -0.048,-1.32 -0.744,-1.632 -1.224,-0.6 -3.288,1.416 -4.056,2.184 -3.600002,3.6 -6.336002,7.656 -8.328002,12.168 -0.624,1.464003 -1.248,3.144003 -1.632,4.680003 -0.072,0.264 -0.12,0.624 0,0.888 0.24,0.528 0.768,0.384 0.96,-0.096 0.264,-0.672 0.24,-1.872 0.504,-2.616 1.872,-5.232003 4.848,-9.936003 8.760002,-14.088003 1.848,-1.992 4.032,-3.576 3.48,0.192 -0.624,4.344 -1.752,8.472 -1.704,12.792003 0,0.96 -0.168,3.984 1.2,4.368 1.512,0.408 2.76,-1.872 3.576,-2.976 2.304,-3.312003 4.152,-6.912003 6.336,-10.272003 0.192,-0.312 0.432,-0.624 0.672,-0.936 z"
           id="path537"
           style="font-size:24px;font-family:'Winter Sunday';-inkscape-font-specification:'Winter Sunday';text-align:center;text-anchor:middle;fill:#999999;stroke-width:1.00157" />
        <path
           d="m 117.23862,99.431607 c 1.152,0.288 3.072,0.144 3.96,-0.048 0.264,-0.048 0.672,-0.24 0.528,-0.648 -0.072,-0.192 -0.216,-0.312 -0.624,-0.192 -0.552,0.144 -2.904,0.312 -3.264,0.072 0.216,-0.36 0.624,-0.888 0.648,-1.32 0.096,-1.176 -1.344,-1.896 -2.856,-0.984 -0.696,0.408 -1.416,1.152 -2.016,1.968 -0.96,1.368 -1.56,2.976003 -1.056,3.864003 0.192,0.36 0.696,0.432 1.32,0.168 1.248,-0.552 1.944,-1.488 3.36,-2.880003 z m -2.64,-0.864 c 0.504,0.696 1.248,0.576 1.344,0.792 0.144,0.312 -0.936,1.200003 -1.152,1.368003 -1.008,0.792 -2.04,0.984 -1.2,-0.672 0.216,-0.480003 0.6,-0.984003 1.008,-1.488003 z m 1.128,-1.152 c 0.576,-0.504 2.088,-0.984 1.608,0.48 -0.336,1.032 -2.448,0.408 -1.608,-0.48 z"
           id="path539"
           style="font-size:24px;font-family:'Winter Sunday';-inkscape-font-specification:'Winter Sunday';text-align:center;text-anchor:middle;fill:#999999;stroke-width:1.00157" />
        <path
           d="m 124.9426,99.911607 c -0.744,1.248003 -4.512,7.296003 -4.632,8.160003 -0.072,0.48 0.432,0.576 0.672,0.336 0.336,-0.312 0.264,-0.504 0.552,-1.008 3.312,-5.904 6.96,-11.808003 11.424,-17.016003 0.888,-1.056 0.024,-1.512 -0.888,-0.336 l -5.016,6.696 c -0.216,0.24 -0.408,0.504 -0.6,0.792 -0.264,-1.176 -0.528,-2.184 -2.088,-1.632 -4.176,1.464 -6.312,9.312003 -1.728,5.640003 0.72,-0.576 1.464,-1.152 2.304,-1.632003 z m -2.88,0.912003 c -1.032,0.792 -1.2,0.552 -0.72,-0.672 0.312,-0.768003 2.736,-4.392003 3.912,-3.312003 0.312,0.288 0.288,1.128 -0.048,1.44 -0.984,0.888 -2.064,1.728003 -3.144,2.544003 z"
           id="path541"
           style="font-size:24px;font-family:'Winter Sunday';-inkscape-font-specification:'Winter Sunday';text-align:center;text-anchor:middle;fill:#999999;stroke-width:1.00157" />
        <path
           d="m 129.9826,99.551607 c 0.12,0.024 0.216,0.048 0.336,0.072 1.632,0.480003 4.416,-0.672 3.888,-2.184 -0.744,-2.136 -5.64,0.48 -5.376,3.072003 0.312,3.048 8.904,0.216 10.632,-1.152003 0.36,-0.312 0.24,-0.624 0.096,-0.744 -0.144,-0.12 -0.312,-0.072 -0.624,0.072 -1.728,0.792 -10.08,4.104003 -8.952,0.864 z m 3.48,-1.8 c -0.768,0.768 -1.608,1.272 -2.736,1.128 0.576,-0.936 1.656,-1.416 2.736,-1.128 z"
           id="path543"
           style="font-size:24px;font-family:'Winter Sunday';-inkscape-font-specification:'Winter Sunday';text-align:center;text-anchor:middle;fill:#999999;stroke-width:1.00157" />
      </g>
      <g
         aria-label="Root node"
         id="text596"
         style="font-size:24px;font-family:'Winter Sunday';-inkscape-font-specification:'Winter Sunday';text-align:center;text-anchor:middle;fill:#999999;stroke-width:1.00157"
         transform="translate(36.518711,136.11105)">
        <path
           d="m 66.155138,-50.290332 c -0.024,0.168 -0.024,0.408 -0.144,0.528 -0.864,1.344 -1.848,2.616 -2.784,3.936 -1.464,2.04 -2.904,4.128 -4.416,6.12 -0.192,0.24 -0.384,0.384 -0.624,0.504 -1.032,0.408 -1.296,0.6 -1.032,1.776 -0.864,1.008 -1.176,1.848 -2.328,2.664 -0.144,0.096 -0.264,0.288 -0.312,0.48 -0.096,0.648 0.144,1.056 0.792,0.648 0.504,-0.36 2.808,-3.48 3.36,-4.224 2.784,0.72 5.592,1.464 8.376,2.328 2.376,0.744 4.92,1.392 7.224,2.304 0.096,0.072 0.216,0.168 0.36,0.144 0.528,-0.072 0.768,-0.36 0.384,-0.84 -0.504,-0.624 -13.104,-4.08 -14.856,-4.656 0.312,-0.24 0.624,-0.36 0.984,-0.48 4.68,-1.392 13.44,-3.648 18.144,-6.672 0.504,-0.312 0.96,-0.648 1.344,-0.984 5.616,-4.704 -3.504,-5.4 -6.144,-5.376 -1.848,0.024 -3.648,0.144 -5.544,0.24 -0.072,-0.24 -0.144,-0.672 -0.384,-0.792 -0.456,-0.24 -0.864,1.104 -2.064,1.416 -1.488,0.36 -4.416,1.152 -5.448,2.568 -0.192,0.312 -0.144,0.672 0.12,0.84 0.648,0.48 0.744,-0.696 1.968,-1.248 0.984,-0.456 2.04,-0.816 3.024,-1.224 z m -6,10.512 c 0.096,-0.216 0.192,-0.408 0.312,-0.624 0.768,-1.224 1.752,-2.4 2.592,-3.6 1.344,-1.896 2.664,-3.864 4.056,-5.712 0.528,-0.672 0.864,-0.888 1.632,-1.008 3.24,-0.528 6.792,-0.6 9.888,0 3.648,0.744 2.904,2.472 0.072,4.272 -5.208,3.456 -12.144,4.848 -18.048,6.552 -0.168,0.048 -0.336,0.072 -0.504,0.12 z"
           id="path598" />
        <path
           d="m 82.043115,-38.506332 c 1.152,0.288 3.072,0.144 3.96,-0.048 0.264,-0.048 0.672,-0.24 0.528,-0.648 -0.072,-0.192 -0.216,-0.312 -0.624,-0.192 -0.552,0.144 -2.904,0.312 -3.264,0.072 0.216,-0.36 0.624,-0.888 0.648,-1.32 0.096,-1.176 -1.344,-1.896 -2.856,-0.984 -0.696,0.408 -1.416,1.152 -2.016,1.968 -0.96,1.368 -1.56,2.976 -1.056,3.864 0.192,0.36 0.696,0.432 1.32,0.168 1.248,-0.552 1.944,-1.488 3.36,-2.88 z m -2.64,-0.864 c 0.504,0.696 1.248,0.576 1.344,0.792 0.144,0.312 -0.936,1.2 -1.152,1.368 -1.008,0.792 -2.04,0.984 -1.2,-0.672 0.216,-0.48 0.6,-0.984 1.008,-1.488 z m 1.128,-1.152 c 0.576,-0.504 2.088,-0.984 1.608,0.48 -0.336,1.032 -2.448,0.408 -1.608,-0.48 z"
           id="path600" />
        <path
           d="m 89.819101,-38.506332 c 1.152,0.288 3.072,0.144 3.96,-0.048 0.264,-0.048 0.672,-0.24 0.528,-0.648 -0.072,-0.192 -0.216,-0.312 -0.624,-0.192 -0.552,0.144 -2.904,0.312 -3.264,0.072 0.216,-0.36 0.624,-0.888 0.648,-1.32 0.096,-1.176 -1.344,-1.896 -2.856,-0.984 -0.696,0.408 -1.416,1.152 -2.016,1.968 -0.96,1.368 -1.56,2.976 -1.056,3.864 0.192,0.36 0.696,0.432 1.32,0.168 1.248,-0.552 1.944,-1.488 3.36,-2.88 z m -2.64,-0.864 c 0.504,0.696 1.248,0.576 1.344,0.792 0.144,0.312 -0.936,1.2 -1.152,1.368 -1.008,0.792 -2.04,0.984 -1.2,-0.672 0.216,-0.48 0.6,-0.984 1.008,-1.488 z m 1.128,-1.152 c 0.576,-0.504 2.088,-0.984 1.608,0.48 -0.336,1.032 -2.448,0.408 -1.608,-0.48 z"
           id="path602" />
        <path
           d="m 97.499087,-44.818332 c -1.992,3.072 -4.68,7.08 -6.888,10.008 -0.216,0.288 -1.056,1.2 -0.552,1.56 0.528,0.384 1.056,-0.456 1.296,-0.816 2.088,-3.168 4.8,-7.224 7.008,-10.296 0.24,-0.336 0.432,-0.528 0.864,-0.552 1.776003,-0.096 4.416003,-0.072 6.096003,-0.384 0.192,-0.024 0.528,-0.192 0.576,-0.408 0.072,-0.384 -0.312,-0.48 -0.6,-0.504 -1.008,-0.072 -5.064,0.576 -5.640003,0.24 1.464003,-1.824 2.016003,-2.496 4.032003,-3.768 0.312,-0.192 0.48,-0.504 0.264,-0.84 -0.24,-0.36 -0.552,-0.24 -0.864,-0.048 -1.392,0.936 -2.952,2.64 -4.104003,3.984 -0.504,0.6 -1.008,0.864 -1.8,0.888 -0.792,0.024 -5.304,0.168 -5.664,0.504 -0.36,0.312 -0.36,0.576 0.096,0.672 1.44,0.288 4.392,-0.36 5.88,-0.24 z"
           id="path604" />
        <path
           d="m 114.53904,-39.370332 c -1.152,0.144 -9.168,5.616 -7.104,2.16 0.624,-1.032 1.416,-1.872 2.52,-2.616 0.408,-0.288 0.552,-0.984 0.048,-1.32 -0.48,-0.264 -1.608,0.048 -3.792,1.104 -0.072,-0.216 -0.12,-0.696 -0.312,-0.816 -0.336,-0.216 -0.6,0.144 -0.792,0.384 -0.384,0.504 -3.624,4.536 -3.672,4.728 -0.168,0.624 0.384,0.888 0.72,0.528 1.368,-1.464 2.856,-3.408 5.28,-4.512 0.576,-0.264 0.984,-0.384 1.248,-0.456 -1.296,1.248 -2.448,3.192 -2.592,3.864 -0.216,0.984 0.24,1.536 1.656,1.128 2.376,-0.696 6.048,-2.808 6.816,-3.312 0.144,-0.096 0.288,-0.192 0.36,-0.336 0.144,-0.312 0.048,-0.6 -0.384,-0.528 z"
           id="path606" />
        <path
           d="m 118.11503,-38.506332 c 1.152,0.288 3.072,0.144 3.96,-0.048 0.264,-0.048 0.672,-0.24 0.528,-0.648 -0.072,-0.192 -0.216,-0.312 -0.624,-0.192 -0.552,0.144 -2.904,0.312 -3.264,0.072 0.216,-0.36 0.624,-0.888 0.648,-1.32 0.096,-1.176 -1.344,-1.896 -2.856,-0.984 -0.696,0.408 -1.416,1.152 -2.016,1.968 -0.96,1.368 -1.56,2.976 -1.056,3.864 0.192,0.36 0.696,0.432 1.32,0.168 1.248,-0.552 1.944,-1.488 3.36,-2.88 z m -2.64,-0.864 c 0.504,0.696 1.248,0.576 1.344,0.792 0.144,0.312 -0.936,1.2 -1.152,1.368 -1.008,0.792 -2.04,0.984 -1.2,-0.672 0.216,-0.48 0.6,-0.984 1.008,-1.488 z m 1.128,-1.152 c 0.576,-0.504 2.088,-0.984 1.608,0.48 -0.336,1.032 -2.448,0.408 -1.608,-0.48 z"
           id="path608" />
        <path
           d="m 125.81902,-38.026332 c -0.744,1.248 -4.512,7.296 -4.632,8.16 -0.072,0.48 0.432,0.576 0.672,0.336 0.336,-0.312 0.264,-0.504 0.552,-1.008 3.312,-5.904 6.96,-11.808 11.424,-17.016 0.888,-1.056 0.024,-1.512 -0.888,-0.336 l -5.016,6.696 c -0.216,0.24 -0.408,0.504 -0.6,0.792 -0.264,-1.176 -0.528,-2.184 -2.088,-1.632 -4.176,1.464 -6.312,9.312 -1.728,5.64 0.72,-0.576 1.464,-1.152 2.304,-1.632 z m -2.88,0.912 c -1.032,0.792 -1.2,0.552 -0.72,-0.672 0.312,-0.768 2.736,-4.392 3.912,-3.312 0.312,0.288 0.288,1.128 -0.048,1.44 -0.984,0.888 -2.064,1.728 -3.144,2.544 z"
           id="path610" />
        <path
           d="m 130.85901,-38.386332 c 0.12,0.024 0.216,0.048 0.336,0.072 1.632,0.48 4.416,-0.672 3.888,-2.184 -0.744,-2.136 -5.64,0.48 -5.376,3.072 0.312,3.048 8.904,0.216 10.632,-1.152 0.36,-0.312 0.24,-0.624 0.096,-0.744 -0.144,-0.12 -0.312,-0.072 -0.624,0.072 -1.728,0.792 -10.08,4.104 -8.952,0.864 z m 3.48,-1.8 c -0.768,0.768 -1.608,1.272 -2.736,1.128 0.576,-0.936 1.656,-1.416 2.736,-1.128 z"
           id="path612" />
      </g>
    </g>
  </g>
</svg>
